<svg width="21" height="20" viewBox="0 0 21 20" fill="none" xmlns="http://www.w3.org/2000/svg">
<g clip-path="url(#clip0_109_4)">
<path d="M10.4777 19.9859C15.9967 19.9859 20.4706 15.5119 20.4706 9.99295C20.4706 4.474 15.9967 0 10.4777 0C4.95874 0 0.484741 4.474 0.484741 9.99295C0.484741 15.5119 4.95874 19.9859 10.4777 19.9859Z" fill="#7D2AE7"/>
<path d="M10.4777 19.9859C15.9967 19.9859 20.4706 15.5119 20.4706 9.99295C20.4706 4.474 15.9967 0 10.4777 0C4.95874 0 0.484741 4.474 0.484741 9.99295C0.484741 15.5119 4.95874 19.9859 10.4777 19.9859Z" fill="url(#paint0_radial_109_4)"/>
<path d="M10.4777 19.9859C15.9967 19.9859 20.4706 15.5119 20.4706 9.99295C20.4706 4.474 15.9967 0 10.4777 0C4.95874 0 0.484741 4.474 0.484741 9.99295C0.484741 15.5119 4.95874 19.9859 10.4777 19.9859Z" fill="url(#paint1_radial_109_4)"/>
<path d="M10.4777 19.9859C15.9967 19.9859 20.4706 15.5119 20.4706 9.99295C20.4706 4.474 15.9967 0 10.4777 0C4.95874 0 0.484741 4.474 0.484741 9.99295C0.484741 15.5119 4.95874 19.9859 10.4777 19.9859Z" fill="url(#paint2_radial_109_4)"/>
<path d="M10.4777 19.9859C15.9967 19.9859 20.4706 15.5119 20.4706 9.99295C20.4706 4.474 15.9967 0 10.4777 0C4.95874 0 0.484741 4.474 0.484741 9.99295C0.484741 15.5119 4.95874 19.9859 10.4777 19.9859Z" fill="url(#paint3_radial_109_4)"/>
<path d="M18.0731 10.8995C18.047 10.8995 18.0231 10.9164 18.0108 10.9519C17.8529 11.4025 17.6395 11.6705 17.4639 11.6705C17.363 11.6705 17.3222 11.5581 17.3222 11.3817C17.3222 10.9404 17.5863 10.0045 17.7196 9.57778C17.735 9.52613 17.745 9.47995 17.745 9.44066C17.745 9.31664 17.6772 9.25578 17.5093 9.25578C17.3283 9.25578 17.1334 9.32664 16.944 9.65865C16.8785 9.36593 16.6805 9.23806 16.404 9.23806C16.0843 9.23806 15.7755 9.44373 15.5213 9.77727C15.2671 10.1108 14.9682 10.2202 14.7433 10.1662C14.9051 9.7703 14.9651 9.47452 14.9651 9.25503C14.9651 8.9107 14.7949 8.70274 14.5199 8.70274C14.1017 8.70274 13.8606 9.10172 13.8606 9.52152C13.8606 9.84581 14.0077 10.1793 14.3312 10.3411C14.0601 10.9542 13.6642 11.5088 13.514 11.5088C13.3199 11.5088 13.2629 10.5591 13.2736 9.87967C13.2806 9.48991 13.3129 9.46991 13.3129 9.35207C13.3129 9.28428 13.269 9.23806 13.0927 9.23806C12.6813 9.23806 12.5542 9.58625 12.535 9.98601C12.5288 10.1379 12.505 10.2886 12.4641 10.4351C12.2923 11.0482 11.938 11.5134 11.707 11.5134C11.5999 11.5134 11.5706 11.4063 11.5706 11.2662C11.5706 10.8248 11.8179 10.2733 11.8179 9.80267C11.8179 9.45684 11.6661 9.2381 11.3804 9.2381C11.0438 9.2381 10.5986 9.63861 10.1772 10.3888C10.3159 9.81424 10.3729 9.2581 9.96231 9.2581C9.87324 9.25943 9.7858 9.28216 9.70735 9.32436C9.68105 9.33672 9.65907 9.35668 9.64424 9.38167C9.62941 9.40665 9.62241 9.43551 9.62416 9.46452C9.66345 10.0761 9.13121 11.6428 8.62668 11.6428C8.53502 11.6428 8.49034 11.5435 8.49034 11.3833C8.49034 10.9411 8.75376 10.0075 8.88625 9.58007C8.90317 9.52459 8.91247 9.47684 8.91247 9.43526C8.91247 9.31818 8.84002 9.2581 8.67597 9.2581C8.49573 9.2581 8.3001 9.32664 8.1114 9.65865C8.04514 9.36593 7.84719 9.23806 7.57065 9.23806C7.11699 9.23806 6.61014 9.71798 6.38754 10.3434C6.08943 11.1784 5.48865 11.9848 4.67987 11.9848C3.94581 11.9848 3.55837 11.374 3.55837 10.4088C3.55837 9.01546 4.58128 7.87704 5.33998 7.87704C5.70278 7.87704 5.87609 8.1081 5.87609 8.46243C5.87609 8.89144 5.63652 9.09093 5.63652 9.25424C5.63652 9.30432 5.67813 9.35361 5.76054 9.35361C6.09022 9.35361 6.47841 8.96617 6.47841 8.43778C6.47841 7.90936 6.04939 7.52271 5.29069 7.52271C4.03672 7.52271 2.77502 8.7844 2.77502 10.4012C2.77502 11.6875 3.40971 12.4631 4.50731 12.4631C5.25601 12.4631 5.90998 11.8809 6.26274 11.2014C6.30282 11.7645 6.55853 12.0588 6.94829 12.0588C7.29491 12.0588 7.57526 11.8524 7.78939 11.4896C7.87184 11.8693 8.09058 12.0549 8.37483 12.0549C8.70061 12.0549 8.97329 11.8485 9.23286 11.4649C9.22904 11.7661 9.29758 12.0496 9.55869 12.0496C9.68191 12.0496 9.82904 12.021 9.85526 11.9132C10.1302 10.7763 10.8096 9.8481 11.0176 9.8481C11.0792 9.8481 11.0961 9.90743 11.0961 9.97751C11.0961 10.2864 10.8781 10.9196 10.8781 11.324C10.8781 11.7607 11.0638 12.0496 11.4474 12.0496C11.8726 12.0496 12.3047 11.5288 12.5927 10.7678C12.6829 11.4788 12.8778 12.0526 13.1828 12.0526C13.5571 12.0526 14.2218 11.2646 14.6247 10.4304C14.7826 10.4505 15.0198 10.4451 15.2478 10.2841C15.1508 10.5298 15.0938 10.7986 15.0938 11.0674C15.0938 11.8416 15.4635 12.0588 15.7816 12.0588C16.1275 12.0588 16.4079 11.8524 16.6227 11.4896C16.6936 11.8169 16.8746 12.0541 17.2074 12.0541C17.7281 12.0541 18.1802 11.5219 18.1802 11.0851C18.1802 10.9696 18.1309 10.8995 18.0731 10.8995ZM7.26565 11.6297C7.05534 11.6297 6.97294 11.4179 6.97294 11.1021C6.97294 10.5537 7.34806 9.63782 7.74475 9.63782C7.91806 9.63782 7.98353 9.84196 7.98353 10.0915C7.98353 10.6484 7.62691 11.6297 7.26565 11.6297ZM14.4683 9.99294C14.3428 9.84349 14.2973 9.64015 14.2973 9.45912C14.2973 9.23578 14.379 9.04704 14.4768 9.04704C14.5746 9.04704 14.6047 9.14333 14.6047 9.27735C14.6047 9.50148 14.5246 9.82885 14.4683 9.99294ZM16.099 11.6297C15.8887 11.6297 15.8063 11.3863 15.8063 11.1021C15.8063 10.5729 16.1814 9.63782 16.5812 9.63782C16.7545 9.63782 16.8161 9.84042 16.8161 10.0915C16.8161 10.6484 16.4656 11.6297 16.099 11.6297Z" fill="white"/>
</g>
<defs>
<radialGradient id="paint0_radial_109_4" cx="0" cy="0" r="1" gradientUnits="userSpaceOnUse" gradientTransform="translate(4.33944 17.7139) rotate(-49.416) scale(15.4574)">
<stop stop-color="#6420FF"/>
<stop offset="1" stop-color="#6420FF" stop-opacity="0"/>
</radialGradient>
<radialGradient id="paint1_radial_109_4" cx="0" cy="0" r="1" gradientUnits="userSpaceOnUse" gradientTransform="translate(5.77571 2.27204) rotate(54.703) scale(17.4311)">
<stop stop-color="#00C4CC"/>
<stop offset="1" stop-color="#00C4CC" stop-opacity="0"/>
</radialGradient>
<radialGradient id="paint2_radial_109_4" cx="0" cy="0" r="1" gradientUnits="userSpaceOnUse" gradientTransform="translate(4.34518 17.7138) rotate(-45.1954) scale(15.2703 7.023)">
<stop stop-color="#6420FF"/>
<stop offset="1" stop-color="#6420FF" stop-opacity="0"/>
</radialGradient>
<radialGradient id="paint3_radial_109_4" cx="0" cy="0" r="1" gradientUnits="userSpaceOnUse" gradientTransform="translate(8.65792 2.69284) rotate(66.5198) scale(15.7348 26.3593)">
<stop stop-color="#00C4CC"/>
<stop offset="1" stop-color="#00C4CC" stop-opacity="0"/>
</radialGradient>
<clipPath id="clip0_109_4">
<rect width="20" height="20" fill="white" transform="translate(0.484741)"/>
</clipPath>
</defs>
</svg>
