<svg xmlns="http://www.w3.org/2000/svg" xmlns:xlink="http://www.w3.org/1999/xlink" width="733" zoomAndPan="magnify" viewBox="0 0 549.75 384.749986" height="513" preserveAspectRatio="xMidYMid meet" version="1.0"><defs><clipPath id="566133d999"><path d="M 0.0546875 2 L 274 2 L 274 328 L 0.0546875 328 Z M 0.0546875 2 " clip-rule="nonzero"/></clipPath><clipPath id="1aec6805b8"><path d="M 18 12 L 274.894531 12 L 274.894531 327 L 18 327 Z M 18 12 " clip-rule="nonzero"/></clipPath><clipPath id="e38ebb4609"><path d="M 492 335 L 534 335 L 534 383.976562 L 492 383.976562 Z M 492 335 " clip-rule="nonzero"/></clipPath><clipPath id="0702672dce"><path d="M 318.761719 180 L 371.546875 180 L 371.546875 206 L 318.761719 206 Z M 318.761719 180 " clip-rule="nonzero"/></clipPath><clipPath id="fbb0c3143a"><path d="M 318.761719 182.128906 C 318.894531 192.382812 320.679688 203.019531 327.980469 210.238281 C 335.277344 217.457031 347.265625 220.390625 356.21875 215.316406 C 359.410156 213.460938 362.144531 211.085938 364.425781 208.183594 C 366.707031 205.28125 368.367188 202.0625 369.414062 198.523438 C 371.253906 191.722656 371.253906 184.574219 371.242188 177.539062 Z M 318.761719 182.128906 " clip-rule="nonzero"/></clipPath><clipPath id="5ba45ef750"><path d="M 318.761719 180 L 368 180 L 368 205 L 318.761719 205 Z M 318.761719 180 " clip-rule="nonzero"/></clipPath><clipPath id="062e3dd802"><path d="M 318.761719 182.128906 C 318.894531 192.382812 320.679688 203.019531 327.980469 210.238281 C 335.277344 217.457031 347.265625 220.390625 356.21875 215.316406 C 359.410156 213.460938 362.144531 211.085938 364.425781 208.183594 C 366.707031 205.28125 368.367188 202.0625 369.414062 198.523438 C 371.253906 191.722656 371.253906 184.574219 371.242188 177.539062 Z M 318.761719 182.128906 " clip-rule="nonzero"/></clipPath><clipPath id="1637ca4c44"><path d="M 264 377 L 420 377 L 420 383.976562 L 264 383.976562 Z M 264 377 " clip-rule="nonzero"/></clipPath><clipPath id="c733e3302d"><path d="M 493 334 L 532 334 L 532 343 L 493 343 Z M 493 334 " clip-rule="nonzero"/></clipPath><clipPath id="484eec0857"><path d="M 492.558594 335.699219 C 492.558594 334.78125 493.074219 333.902344 494.109375 333.054688 C 495.140625 332.210938 496.609375 331.464844 498.519531 330.816406 C 500.425781 330.167969 502.625 329.671875 505.117188 329.320312 C 507.609375 328.96875 510.203125 328.792969 512.902344 328.792969 C 515.601562 328.792969 518.195312 328.96875 520.6875 329.320312 C 523.179688 329.671875 525.378906 330.167969 527.285156 330.816406 C 529.195312 331.464844 530.664062 332.210938 531.695312 333.054688 C 532.730469 333.902344 533.246094 334.78125 533.246094 335.699219 C 533.246094 336.613281 532.730469 337.492188 531.695312 338.339844 C 530.664062 339.183594 529.195312 339.933594 527.285156 340.578125 C 525.378906 341.226562 523.179688 341.726562 520.6875 342.074219 C 518.195312 342.425781 515.601562 342.601562 512.902344 342.601562 C 510.203125 342.601562 507.609375 342.425781 505.117188 342.074219 C 502.625 341.726562 500.425781 341.226562 498.519531 340.578125 C 496.609375 339.933594 495.140625 339.183594 494.109375 338.339844 C 493.074219 337.492188 492.558594 336.613281 492.558594 335.699219 Z M 492.558594 335.699219 " clip-rule="nonzero"/></clipPath><clipPath id="cab242414c"><path d="M 525 342 L 548.683594 342 L 548.683594 373 L 525 373 Z M 525 342 " clip-rule="nonzero"/></clipPath></defs><g clip-path="url(#566133d999)"><path fill="#bcbcbc" d="M 247.597656 218.585938 L 28.78125 326.71875 C 21.519531 329.65625 0.0117188 315.648438 0.125 302.699219 L 0.0117188 72.179688 C 0.0117188 63.121094 5.9375 54.46875 13.179688 52.859375 L 241.433594 2.304688 C 250.773438 0.105469 273.597656 10.667969 273.597656 18.097656 L 256.613281 201.484375 C 256.613281 208.902344 252.589844 216.550781 247.597656 218.585938 Z M 247.597656 218.585938 " fill-opacity="1" fill-rule="nonzero"/></g><g clip-path="url(#1aec6805b8)"><path fill="#e1e1e1" d="M 265.804688 230.703125 L 31.5 325.867188 C 24.238281 328.804688 18.335938 323.875 18.324219 314.828125 L 18.222656 84.25 C 18.222656 75.199219 24.132812 66.546875 31.386719 64.9375 L 265.804688 13.054688 C 270.796875 11.953125 274.8125 17.082031 274.8125 24.46875 L 274.8125 213.605469 C 274.8125 221.035156 270.796875 228.679688 265.804688 230.703125 Z M 265.804688 230.703125 " fill-opacity="1" fill-rule="nonzero"/></g><path fill="#2a373f" d="M 267.011719 197.738281 L 30.609375 287.238281 L 30.527344 83.554688 L 267.011719 28.089844 Z M 267.011719 197.738281 " fill-opacity="1" fill-rule="nonzero"/><path fill="#3f494f" d="M 266.707031 49.226562 L 30.535156 108.839844 L 30.527344 83.554688 L 266.707031 28.164062 Z M 266.707031 49.226562 " fill-opacity="1" fill-rule="nonzero"/><path fill="#ff735c" d="M 52.824219 90.773438 C 52.824219 94.40625 50.488281 97.925781 47.632812 98.652344 C 44.78125 99.378906 42.375 96.980469 42.375 93.328125 C 42.375 89.675781 44.730469 86.136719 47.632812 85.441406 C 50.539062 84.746094 52.8125 87.144531 52.824219 90.773438 Z M 52.824219 90.773438 " fill-opacity="1" fill-rule="nonzero"/><path fill="#f4d9ae" d="M 70.730469 86.417969 C 70.730469 89.996094 68.457031 93.472656 65.636719 94.167969 C 62.8125 94.863281 60.511719 92.507812 60.511719 88.898438 C 60.511719 85.285156 62.804688 81.808594 65.636719 81.136719 C 68.46875 80.460938 70.730469 82.828125 70.730469 86.417969 Z M 70.730469 86.417969 " fill-opacity="1" fill-rule="nonzero"/><path fill="#2d8078" d="M 88.179688 82.164062 C 88.179688 85.699219 85.972656 89.125 83.222656 89.800781 C 80.472656 90.472656 78.222656 88.148438 78.222656 84.613281 C 78.222656 81.074219 80.460938 77.617188 83.222656 76.953125 C 85.980469 76.289062 88.179688 78.625 88.179688 82.164062 Z M 88.179688 82.164062 " fill-opacity="1" fill-rule="nonzero"/><path fill="#f4d9ae" d="M 128.3125 191.449219 C 128.3125 197.925781 123.332031 203.984375 118.828125 202.9375 L 77.703125 193.277344 C 75.035156 192.652344 73.3125 189.820312 73.304688 186.085938 L 73.304688 180.71875 C 73.316406 178.828125 73.703125 177.019531 74.464844 175.289062 C 75.226562 173.558594 76.304688 172.050781 77.691406 170.769531 L 118.808594 135.230469 C 123.3125 131.335938 128.292969 134.273438 128.300781 140.75 L 128.300781 140.84375 C 128.304688 142.695312 127.929688 144.46875 127.171875 146.164062 C 126.417969 147.855469 125.347656 149.320312 123.964844 150.554688 L 90.464844 177.867188 L 124.027344 184.464844 C 126.613281 184.984375 128.3125 187.746094 128.3125 191.449219 Z M 128.3125 191.449219 " fill-opacity="1" fill-rule="nonzero"/><path fill="#f4d9ae" d="M 170.300781 114.652344 L 156.398438 197.738281 C 155.929688 200.503906 155.515625 202.707031 155.164062 204.347656 C 154.882812 205.828125 154.34375 207.210938 153.554688 208.5 C 152.773438 209.65625 151.71875 210.453125 150.390625 210.886719 C 146.9375 212.109375 145.203125 210.699219 145.203125 206.640625 C 145.410156 203.855469 145.753906 201.089844 146.242188 198.339844 L 160.25 114.558594 C 160.667969 111.433594 161.359375 108.367188 162.324219 105.363281 C 162.640625 104.507812 163.140625 103.78125 163.828125 103.183594 C 164.515625 102.582031 165.304688 102.183594 166.191406 101.980469 C 167.84375 101.523438 169.097656 101.722656 169.96875 102.574219 C 170.457031 103.148438 170.8125 103.796875 171.039062 104.519531 C 171.261719 105.238281 171.339844 105.972656 171.265625 106.722656 C 171.132812 109.390625 170.8125 112.03125 170.300781 114.652344 Z M 170.300781 114.652344 " fill-opacity="1" fill-rule="nonzero"/><path fill="#f4d9ae" d="M 230.09375 144.058594 L 195.574219 176.984375 C 191.59375 180.78125 187.097656 178.1875 187.097656 172.046875 L 187.097656 171.921875 C 187.089844 170.1875 187.421875 168.523438 188.089844 166.925781 C 188.761719 165.328125 189.71875 163.925781 190.957031 162.714844 L 219.886719 137.292969 L 190.980469 130.289062 C 188.636719 129.730469 187.089844 127.03125 187.089844 123.503906 C 187.089844 117.371094 191.5625 111.953125 195.542969 113.21875 L 230.074219 124.207031 C 232.148438 124.871094 233.496094 127.425781 233.496094 130.703125 L 233.496094 135.476562 C 233.5 137.074219 233.207031 138.613281 232.621094 140.09375 C 232.03125 141.578125 231.191406 142.898438 230.09375 144.058594 Z M 230.09375 144.058594 " fill-opacity="1" fill-rule="nonzero"/><g clip-path="url(#e38ebb4609)"><path fill="#ff735c" d="M 492.558594 335.699219 L 492.558594 376.476562 C 492.558594 380.285156 501.695312 383.382812 512.863281 383.382812 C 524.027344 383.382812 533.164062 380.285156 533.164062 376.476562 L 533.164062 335.699219 Z M 492.558594 335.699219 " fill-opacity="1" fill-rule="nonzero"/></g><path fill="#f8c6a3" d="M 273.132812 186.1875 C 256.617188 185.628906 251.816406 198.839844 246.597656 209.191406 C 241.378906 219.546875 238.324219 230.828125 235.277344 242.023438 C 228.800781 265.875 222.320312 289.722656 215.839844 313.566406 C 214.679688 317.800781 212.316406 330.773438 214.40625 334.632812 C 216.5 338.488281 222.445312 331.972656 226.699219 333.300781 C 238.433594 336.976562 235.574219 336.042969 247.308594 339.71875 C 256.738281 315.070312 264.128906 286.417969 273.558594 261.769531 C 278.15625 249.699219 299.472656 245.894531 299.757812 232.9375 C 299.78125 230.621094 299.660156 228.308594 299.402344 226.003906 C 299.140625 223.703125 298.742188 221.421875 298.207031 219.167969 C 297.667969 216.910156 296.996094 214.695312 296.191406 212.523438 C 295.382812 210.347656 294.449219 208.234375 293.386719 206.171875 C 292.320312 204.113281 291.136719 202.125 289.828125 200.210938 C 288.523438 198.292969 287.105469 196.464844 285.578125 194.722656 C 284.050781 192.980469 282.421875 191.335938 280.691406 189.789062 C 278.960938 188.246094 277.148438 186.8125 275.242188 185.488281 Z M 273.132812 186.1875 " fill-opacity="1" fill-rule="nonzero"/><path fill="#f8c6a3" d="M 216.550781 327.648438 C 223.59375 319.527344 232.03125 323.757812 243.328125 322.792969 C 254.625 321.828125 268.339844 326.785156 279.292969 329.097656 C 304.378906 334.410156 327.125 334.175781 351.558594 341.433594 C 355.46875 342.589844 361.773438 339.757812 364.9375 342.0625 C 368.429688 344.609375 370.695312 348.570312 370.480469 352.640625 C 370.394531 353.714844 370.15625 354.753906 369.769531 355.761719 C 369.378906 356.765625 368.855469 357.695312 368.199219 358.550781 C 367.542969 359.402344 366.777344 360.144531 365.902344 360.777344 C 365.03125 361.410156 364.085938 361.90625 363.070312 362.265625 C 360.882812 362.933594 358.648438 363.273438 356.363281 363.28125 C 322.824219 364.777344 289.378906 363.613281 256.027344 359.789062 C 246.222656 358.660156 236.160156 357.210938 227.808594 352.621094 C 219.453125 348.03125 213.128906 339.554688 214.550781 330.753906 " fill-opacity="1" fill-rule="nonzero"/><path fill="#385a64" d="M 281.070312 185.09375 C 274.390625 180.484375 266.207031 183.925781 259.113281 187.875 C 252.015625 191.824219 248.25 197.964844 244.484375 205.132812 C 236.019531 221.292969 230.769531 244.167969 223.738281 262.582031 C 222.996094 264.511719 221.878906 266.441406 222.203125 268.480469 C 222.558594 270.695312 224.285156 272.398438 225.929688 273.933594 C 229.097656 277.042969 232.582031 279.75 236.375 282.054688 C 242.871094 286.398438 243.683594 286.5 251.011719 290.175781 C 258.339844 293.851562 265.753906 296.550781 273.945312 295.941406 C 282.320312 261.71875 290.722656 226.136719 283.738281 191.601562 " fill-opacity="1" fill-rule="nonzero"/><path fill="#f2996d" d="M 253.449219 323.027344 C 247.304688 322.539062 241.328125 323.332031 235.523438 325.402344 C 234.964844 325.597656 235.207031 326.488281 235.765625 326.285156 C 241.480469 324.253906 247.359375 323.472656 253.410156 323.941406 C 253.996094 323.992188 253.996094 323.070312 253.410156 323.027344 Z M 253.449219 323.027344 " fill-opacity="1" fill-rule="nonzero"/><path fill="#f8c6a3" d="M 411.238281 185.476562 C 427.570312 183 433.886719 195.558594 440.25 205.246094 C 446.617188 214.929688 450.980469 225.78125 455.292969 236.503906 L 482.894531 305.3125 C 484.53125 309.375 488.378906 321.992188 486.753906 326.074219 C 485.128906 330.15625 478.460938 324.359375 474.390625 326.175781 C 463.160156 331.191406 465.890625 329.921875 454.65625 334.9375 C 442.472656 311.585938 431.785156 283.941406 419.5625 260.550781 C 413.5625 249.070312 391.941406 247.792969 390.195312 234.949219 C 389.910156 232.648438 389.761719 230.339844 389.757812 228.023438 C 389.75 225.707031 389.886719 223.394531 390.160156 221.09375 C 390.4375 218.792969 390.851562 216.519531 391.402344 214.265625 C 391.953125 212.015625 392.640625 209.808594 393.460938 207.640625 C 394.28125 205.472656 395.230469 203.363281 396.308594 201.3125 C 397.386719 199.261719 398.585938 197.28125 399.902344 195.375 C 401.222656 193.46875 402.652344 191.652344 404.191406 189.917969 C 405.730469 188.1875 407.367188 186.554688 409.105469 185.019531 Z M 411.238281 185.476562 " fill-opacity="1" fill-rule="nonzero"/><path fill="#385a64" d="M 416.792969 362.957031 L 273.273438 362.957031 L 273.273438 182.949219 L 345.03125 169.996094 L 416.792969 182.949219 Z M 416.792969 362.957031 " fill-opacity="1" fill-rule="nonzero"/><path fill="#f8c6a3" d="M 318.761719 182.128906 C 318.894531 192.382812 320.679688 203.019531 327.980469 210.238281 C 335.277344 217.457031 347.265625 220.390625 356.21875 215.316406 C 357.800781 214.398438 359.28125 213.335938 360.660156 212.136719 C 362.039062 210.9375 363.296875 209.621094 364.425781 208.183594 C 365.554688 206.746094 366.539062 205.214844 367.378906 203.589844 C 368.21875 201.964844 368.898438 200.277344 369.414062 198.523438 C 371.253906 191.722656 371.253906 184.574219 371.242188 177.539062 Z M 318.761719 182.128906 " fill-opacity="1" fill-rule="nonzero"/><g clip-path="url(#0702672dce)"><g clip-path="url(#fbb0c3143a)"><path fill="#f2996d" d="M 368.503906 181.019531 C 366.859375 189.144531 360.847656 195.355469 353.558594 198.816406 C 349.5 200.6875 345.246094 201.863281 340.800781 202.339844 C 336.066406 203.023438 331.351562 202.898438 326.660156 201.976562 C 324.363281 201.523438 322.210938 200.703125 320.195312 199.519531 C 318.179688 198.332031 316.414062 196.847656 314.902344 195.0625 C 313.789062 193.679688 311.859375 195.652344 312.953125 197.019531 C 319.226562 204.789062 329.9375 206.097656 339.277344 205.265625 C 348.414062 204.441406 357.761719 201.355469 364.269531 194.542969 C 365.996094 192.78125 367.449219 190.808594 368.621094 188.636719 C 369.792969 186.460938 370.636719 184.167969 371.160156 181.753906 C 371.515625 180.015625 368.847656 179.273438 368.503906 181.019531 Z M 368.503906 181.019531 " fill-opacity="1" fill-rule="nonzero"/></g></g><g clip-path="url(#5ba45ef750)"><g clip-path="url(#062e3dd802)"><path fill="#f2996d" d="M 316.019531 184.097656 C 315.722656 187.125 315.96875 190.105469 316.757812 193.042969 C 317.542969 195.980469 318.824219 198.683594 320.597656 201.152344 C 322.628906 204.015625 327.441406 203.183594 327.460938 199.296875 C 327.453125 197.269531 327.625 195.257812 327.980469 193.265625 L 320.742188 192.25 C 320.878906 195.5 321.738281 198.542969 323.320312 201.386719 C 325.074219 204.605469 330.222656 203.132812 330.179688 199.519531 C 330.179688 197.542969 329.910156 195.605469 329.363281 193.707031 C 328.820312 191.8125 328.023438 190.023438 326.972656 188.351562 C 325.1875 185.4375 319.785156 186.390625 320.113281 190.210938 C 320.445312 194.199219 321.054688 198.421875 324.3125 201.132812 C 327.878906 204.097656 332.375 203.273438 336.585938 202.625 C 346.902344 201.042969 357.253906 198.808594 365.730469 192.382812 L 361.265625 186.59375 C 357.042969 190.25 352.21875 193.976562 346.496094 194.605469 C 340.402344 195.273438 334.71875 191.90625 329.601562 188.960938 C 325.726562 186.738281 322.679688 191.621094 325.136719 194.746094 C 329.410156 200.1875 334.730469 204.511719 341.996094 204.027344 C 345.945312 203.761719 347.226562 197.800781 343.011719 196.789062 L 342.394531 196.644531 C 337.785156 195.550781 335.816406 202.65625 340.433594 203.75 L 341.054688 203.894531 L 342.070312 196.65625 C 336.648438 197.019531 333.480469 193.449219 330.414062 189.550781 L 325.957031 195.335938 C 332.566406 199.132812 339.671875 202.867188 347.558594 201.925781 C 354.96875 201.03125 361.0625 196.5625 366.542969 191.773438 C 369.667969 189.070312 365.4375 183.449219 362.085938 185.984375 C 356.992188 189.746094 351.347656 192.289062 345.15625 193.621094 C 342.261719 194.308594 339.335938 194.808594 336.402344 195.285156 C 334.972656 195.519531 332 196.300781 330.628906 196.003906 C 327.90625 195.335938 327.675781 192.472656 327.492188 190.25 L 320.617188 192.109375 C 322.09375 194.375 322.828125 196.863281 322.820312 199.570312 L 329.683594 197.710938 C 328.699219 196.039062 328.179688 194.230469 328.121094 192.289062 C 327.90625 188.371094 321.664062 187 320.882812 191.273438 C 320.382812 193.914062 320.125 196.578125 320.101562 199.265625 L 326.964844 197.40625 C 325.546875 195.488281 324.53125 193.378906 323.914062 191.074219 C 323.300781 188.773438 323.128906 186.4375 323.402344 184.066406 C 323.835938 179.347656 316.46875 179.375 316.03125 184.066406 Z M 316.019531 184.097656 " fill-opacity="1" fill-rule="nonzero"/></g></g><path fill="#f8c6a3" d="M 382.785156 135.671875 C 381.65625 145.570312 380.46875 155.785156 377.609375 164.636719 C 373.839844 176.300781 368.472656 184.636719 361.660156 191.253906 C 356.453125 196.332031 347.925781 198.472656 340.960938 197.933594 C 325.625 196.746094 315.300781 181 309.066406 163.601562 C 303.503906 148.066406 303.65625 129.714844 311.59375 115.09375 C 319.53125 100.476562 335.886719 90.660156 351.417969 93.328125 C 366.949219 96 384.289062 113.1875 382.96875 134.953125 Z M 382.785156 135.671875 " fill-opacity="1" fill-rule="nonzero"/><path fill="#2a373f" d="M 319.371094 146.707031 C 320.109375 146.09375 320.914062 145.585938 321.792969 145.191406 C 322.667969 144.796875 323.582031 144.527344 324.53125 144.378906 C 325.480469 144.234375 326.433594 144.21875 327.386719 144.332031 C 328.339844 144.445312 329.261719 144.6875 330.152344 145.054688 C 330.742188 145.269531 331.238281 145.625 331.632812 146.117188 C 331.828125 146.371094 331.921875 146.65625 331.921875 146.976562 C 331.921875 147.296875 331.828125 147.582031 331.632812 147.835938 C 330.984375 148.523438 329.847656 148.097656 328.953125 147.773438 C 327.78125 147.351562 326.578125 147.191406 325.335938 147.296875 C 324.097656 147.398438 322.933594 147.753906 321.847656 148.363281 C 321.242188 148.789062 320.59375 149.125 319.898438 149.378906 C 319.589844 149.519531 319.277344 149.546875 318.949219 149.453125 C 318.625 149.363281 318.367188 149.171875 318.183594 148.890625 C 317.808594 148.261719 318.183594 147.589844 319.339844 146.726562 " fill-opacity="1" fill-rule="nonzero"/><path fill="#2a373f" d="M 321.878906 156.210938 C 322.46875 155.808594 323.109375 155.5 323.792969 155.285156 C 324.472656 155.070312 325.171875 154.957031 325.890625 154.945312 C 326.605469 154.933594 327.308594 155.027344 327.996094 155.222656 C 328.6875 155.414062 329.332031 155.703125 329.9375 156.089844 C 330.433594 156.402344 330.953125 155.609375 330.40625 155.285156 C 329.730469 154.863281 329.007812 154.542969 328.238281 154.328125 C 327.46875 154.113281 326.6875 154.011719 325.886719 154.023438 C 325.089844 154.035156 324.3125 154.160156 323.546875 154.398438 C 322.785156 154.632812 322.074219 154.972656 321.410156 155.417969 C 320.921875 155.742188 321.410156 156.546875 321.878906 156.210938 Z M 321.878906 156.210938 " fill-opacity="1" fill-rule="nonzero"/><path fill="#2a373f" d="M 328.261719 162.492188 C 328.261719 162.996094 328.203125 163.480469 328.085938 163.945312 C 327.96875 164.414062 327.800781 164.824219 327.585938 165.179688 C 327.367188 165.535156 327.117188 165.808594 326.835938 166 C 326.550781 166.195312 326.253906 166.289062 325.949219 166.289062 C 325.640625 166.289062 325.347656 166.195312 325.0625 166 C 324.777344 165.808594 324.527344 165.535156 324.3125 165.179688 C 324.09375 164.824219 323.925781 164.414062 323.808594 163.945312 C 323.691406 163.480469 323.632812 162.996094 323.632812 162.492188 C 323.632812 161.992188 323.691406 161.507812 323.808594 161.039062 C 323.925781 160.574219 324.09375 160.164062 324.3125 159.808594 C 324.527344 159.453125 324.777344 159.179688 325.0625 158.984375 C 325.347656 158.792969 325.640625 158.695312 325.949219 158.695312 C 326.253906 158.695312 326.550781 158.792969 326.835938 158.984375 C 327.117188 159.179688 327.367188 159.453125 327.585938 159.808594 C 327.800781 160.164062 327.96875 160.574219 328.085938 161.039062 C 328.203125 161.507812 328.261719 161.992188 328.261719 162.492188 Z M 328.261719 162.492188 " fill-opacity="1" fill-rule="nonzero"/><path fill="#2a373f" d="M 367.488281 146.707031 C 366.75 146.09375 365.945312 145.585938 365.070312 145.191406 C 364.195312 144.796875 363.28125 144.527344 362.332031 144.378906 C 361.382812 144.234375 360.433594 144.21875 359.476562 144.332031 C 358.523438 144.445312 357.605469 144.6875 356.714844 145.054688 C 356.121094 145.265625 355.625 145.621094 355.234375 146.117188 C 355.042969 146.375 354.949219 146.660156 354.949219 146.976562 C 354.949219 147.292969 355.042969 147.582031 355.234375 147.835938 C 355.882812 148.523438 357.019531 148.097656 357.914062 147.773438 C 359.078125 147.359375 360.273438 147.203125 361.503906 147.308594 C 362.734375 147.410156 363.890625 147.761719 364.96875 148.363281 C 365.574219 148.785156 366.222656 149.125 366.917969 149.378906 C 367.226562 149.519531 367.542969 149.546875 367.867188 149.453125 C 368.191406 149.363281 368.449219 149.171875 368.632812 148.890625 C 369.007812 148.261719 368.632812 147.589844 367.476562 146.726562 " fill-opacity="1" fill-rule="nonzero"/><path fill="#2a373f" d="M 365.457031 155.417969 C 364.792969 154.976562 364.082031 154.632812 363.320312 154.398438 C 362.558594 154.160156 361.78125 154.035156 360.984375 154.023438 C 360.1875 154.011719 359.40625 154.113281 358.636719 154.328125 C 357.871094 154.542969 357.148438 154.863281 356.472656 155.285156 C 355.976562 155.609375 356.472656 156.402344 356.929688 156.089844 C 357.535156 155.703125 358.183594 155.414062 358.875 155.222656 C 359.5625 155.027344 360.265625 154.933594 360.984375 154.945312 C 361.699219 154.957031 362.398438 155.070312 363.082031 155.285156 C 363.765625 155.5 364.40625 155.808594 365 156.210938 C 365.488281 156.542969 365.945312 155.742188 365.457031 155.417969 Z M 365.457031 155.417969 " fill-opacity="1" fill-rule="nonzero"/><path fill="#2a373f" d="M 363.203125 162.492188 C 363.203125 162.996094 363.144531 163.480469 363.027344 163.945312 C 362.910156 164.414062 362.742188 164.824219 362.523438 165.179688 C 362.308594 165.535156 362.058594 165.808594 361.773438 166 C 361.492188 166.195312 361.195312 166.289062 360.890625 166.289062 C 360.582031 166.289062 360.285156 166.195312 360.003906 166 C 359.71875 165.808594 359.46875 165.535156 359.253906 165.179688 C 359.035156 164.824219 358.867188 164.414062 358.75 163.945312 C 358.632812 163.480469 358.574219 162.996094 358.574219 162.492188 C 358.574219 161.992188 358.632812 161.507812 358.75 161.039062 C 358.867188 160.574219 359.035156 160.164062 359.253906 159.808594 C 359.46875 159.453125 359.71875 159.179688 360.003906 158.984375 C 360.285156 158.792969 360.582031 158.695312 360.890625 158.695312 C 361.195312 158.695312 361.492188 158.792969 361.773438 158.984375 C 362.058594 159.179688 362.308594 159.453125 362.523438 159.808594 C 362.742188 160.164062 362.910156 160.574219 363.027344 161.039062 C 363.144531 161.507812 363.203125 161.992188 363.203125 162.492188 Z M 363.203125 162.492188 " fill-opacity="1" fill-rule="nonzero"/><path fill="#f8c6a3" d="M 483.820312 319.425781 C 475.882812 312.207031 467.992188 317.394531 456.65625 317.699219 C 445.316406 318.003906 432.292969 324.5625 421.664062 328.132812 C 397.363281 336.316406 374.734375 338.753906 351.304688 348.753906 C 347.558594 350.347656 340.972656 348.265625 338.109375 350.9375 C 334.941406 353.871094 333.144531 358.042969 333.835938 362.101562 C 334.046875 363.160156 334.402344 364.164062 334.90625 365.117188 C 335.410156 366.070312 336.035156 366.933594 336.789062 367.707031 C 337.539062 368.476562 338.386719 369.128906 339.324219 369.65625 C 340.265625 370.183594 341.261719 370.566406 342.3125 370.804688 C 344.558594 371.195312 346.816406 371.257812 349.082031 370.984375 C 382.570312 368.589844 415.65625 363.5625 448.339844 355.898438 C 457.953125 353.644531 467.769531 351.039062 475.535156 345.515625 C 483.300781 339.992188 488.609375 330.835938 486.175781 322.257812 " fill-opacity="1" fill-rule="nonzero"/><path fill="#385a64" d="M 406.945312 185.09375 C 413.625 180.484375 421.804688 183.925781 428.902344 187.875 C 435.996094 191.824219 439.761719 197.964844 443.53125 205.132812 C 451.996094 221.292969 461.039062 238.480469 468.90625 254.296875 C 469.832031 256.144531 470.765625 258.15625 470.441406 260.195312 C 470.085938 262.421875 468.359375 264.117188 466.714844 265.648438 C 462.207031 269.871094 461.476562 270.726562 456.960938 274.949219 C 450.953125 280.464844 444.4375 285.300781 437.417969 289.457031 C 430.394531 293.71875 422.191406 296.5625 414.070312 295.941406 C 405.707031 261.71875 397.289062 226.136719 404.273438 191.601562 " fill-opacity="1" fill-rule="nonzero"/><g clip-path="url(#1637ca4c44)"><path fill="#bcbcbc" d="M 264.636719 377.261719 L 419.5625 377.261719 L 419.5625 383.816406 L 264.636719 383.816406 Z M 264.636719 377.261719 " fill-opacity="1" fill-rule="nonzero"/></g><path fill="#e1e1e1" d="M 419.980469 377.261719 L 264.21875 377.261719 L 248.230469 284.714844 C 248.128906 284.117188 248.089844 283.515625 248.121094 282.910156 C 248.148438 282.304688 248.242188 281.707031 248.402344 281.121094 C 248.558594 280.535156 248.78125 279.976562 249.0625 279.4375 C 249.34375 278.902344 249.679688 278.398438 250.070312 277.9375 C 250.460938 277.472656 250.894531 277.054688 251.375 276.6875 C 251.859375 276.316406 252.375 276.003906 252.921875 275.75 C 253.472656 275.492188 254.042969 275.296875 254.636719 275.167969 C 255.226562 275.035156 255.828125 274.96875 256.433594 274.96875 L 427.765625 274.96875 C 428.371094 274.96875 428.96875 275.035156 429.5625 275.167969 C 430.15625 275.296875 430.726562 275.492188 431.273438 275.75 C 431.824219 276.003906 432.339844 276.316406 432.820312 276.6875 C 433.304688 277.054688 433.738281 277.472656 434.128906 277.9375 C 434.519531 278.398438 434.855469 278.902344 435.136719 279.4375 C 435.417969 279.976562 435.636719 280.535156 435.796875 281.121094 C 435.957031 281.707031 436.050781 282.304688 436.078125 282.910156 C 436.105469 283.515625 436.070312 284.117188 435.964844 284.714844 Z M 419.980469 377.261719 " fill-opacity="1" fill-rule="nonzero"/><path fill="#ffffff" d="M 355.0625 329.472656 C 355.0625 330.375 354.996094 331.269531 354.871094 332.152344 C 354.742188 333.035156 354.550781 333.894531 354.296875 334.726562 C 354.046875 335.558594 353.738281 336.351562 353.371094 337.101562 C 353.007812 337.847656 352.589844 338.542969 352.125 339.179688 C 351.660156 339.816406 351.152344 340.386719 350.605469 340.886719 C 350.058594 341.386719 349.480469 341.808594 348.871094 342.15625 C 348.261719 342.5 347.636719 342.761719 346.988281 342.9375 C 346.34375 343.113281 345.691406 343.199219 345.03125 343.199219 C 344.375 343.199219 343.722656 343.113281 343.074219 342.9375 C 342.429688 342.761719 341.804688 342.5 341.195312 342.15625 C 340.585938 341.808594 340.007812 341.386719 339.460938 340.886719 C 338.914062 340.386719 338.40625 339.816406 337.941406 339.179688 C 337.476562 338.542969 337.058594 337.847656 336.695312 337.101562 C 336.328125 336.351562 336.019531 335.558594 335.765625 334.726562 C 335.515625 333.894531 335.324219 333.035156 335.195312 332.152344 C 335.066406 331.269531 335.003906 330.375 335.003906 329.472656 C 335.003906 328.574219 335.066406 327.679688 335.195312 326.796875 C 335.324219 325.914062 335.515625 325.054688 335.765625 324.222656 C 336.019531 323.390625 336.328125 322.597656 336.695312 321.847656 C 337.058594 321.097656 337.476562 320.40625 337.941406 319.769531 C 338.40625 319.132812 338.914062 318.5625 339.460938 318.0625 C 340.007812 317.5625 340.585938 317.136719 341.195312 316.792969 C 341.804688 316.449219 342.429688 316.1875 343.074219 316.011719 C 343.722656 315.835938 344.375 315.75 345.03125 315.75 C 345.691406 315.75 346.34375 315.835938 346.988281 316.011719 C 347.636719 316.1875 348.261719 316.449219 348.871094 316.792969 C 349.480469 317.136719 350.058594 317.5625 350.605469 318.0625 C 351.152344 318.5625 351.660156 319.132812 352.125 319.769531 C 352.589844 320.40625 353.007812 321.097656 353.371094 321.847656 C 353.738281 322.597656 354.046875 323.390625 354.296875 324.222656 C 354.550781 325.054688 354.742188 325.914062 354.871094 326.796875 C 354.996094 327.679688 355.0625 328.574219 355.0625 329.472656 Z M 355.0625 329.472656 " fill-opacity="1" fill-rule="nonzero"/><path fill="#f8c6a3" d="M 380.144531 150.890625 C 380.757812 149.0625 381.691406 147.417969 382.949219 145.957031 C 383.265625 145.601562 383.628906 145.296875 384.035156 145.046875 C 384.441406 144.792969 384.875 144.605469 385.335938 144.476562 C 385.796875 144.351562 386.265625 144.289062 386.742188 144.300781 C 387.222656 144.308594 387.6875 144.382812 388.144531 144.523438 C 388.777344 144.816406 389.316406 145.226562 389.765625 145.761719 C 390.210938 146.292969 390.523438 146.898438 390.703125 147.570312 C 391.039062 148.941406 391.074219 150.316406 390.8125 151.703125 C 390.554688 153.371094 390.113281 154.992188 389.492188 156.5625 C 388.871094 158.132812 388.085938 159.617188 387.136719 161.011719 C 386.183594 162.40625 385.09375 163.683594 383.859375 164.835938 C 382.625 165.988281 381.277344 166.992188 379.820312 167.84375 C 378.601562 168.542969 376.90625 169.0625 375.933594 168.058594 C 374.957031 167.050781 375.375 165.785156 375.710938 164.625 L 379.28125 152.332031 Z M 380.144531 150.890625 " fill-opacity="1" fill-rule="nonzero"/><path fill="#f8c6a3" d="M 305.910156 150.890625 C 305.292969 149.0625 304.355469 147.417969 303.097656 145.957031 C 302.78125 145.601562 302.417969 145.296875 302.011719 145.042969 C 301.609375 144.792969 301.175781 144.605469 300.714844 144.476562 C 300.253906 144.351562 299.785156 144.289062 299.308594 144.296875 C 298.832031 144.308594 298.367188 144.382812 297.910156 144.523438 C 297.277344 144.816406 296.734375 145.226562 296.285156 145.761719 C 295.835938 146.292969 295.523438 146.898438 295.34375 147.570312 C 295.019531 148.941406 294.980469 150.316406 295.230469 151.703125 C 295.492188 153.371094 295.933594 154.992188 296.554688 156.5625 C 297.175781 158.136719 297.960938 159.617188 298.914062 161.015625 C 299.863281 162.410156 300.957031 163.683594 302.191406 164.835938 C 303.429688 165.988281 304.777344 166.992188 306.234375 167.84375 C 307.453125 168.542969 309.148438 169.0625 310.121094 168.058594 C 311.097656 167.050781 310.679688 165.785156 310.347656 164.625 L 306.773438 152.332031 Z M 305.910156 150.890625 " fill-opacity="1" fill-rule="nonzero"/><path fill="#517077" d="M 322.089844 214.339844 C 323.191406 215.9375 324.4375 217.410156 325.832031 218.761719 C 327.222656 220.113281 328.734375 221.3125 330.367188 222.363281 C 331.996094 223.414062 333.714844 224.292969 335.519531 225 C 337.328125 225.710938 339.183594 226.234375 341.09375 226.574219 C 342.980469 226.894531 344.878906 227.023438 346.789062 226.964844 C 348.699219 226.902344 350.585938 226.652344 352.445312 226.210938 C 354.308594 225.773438 356.105469 225.152344 357.839844 224.347656 C 359.578125 223.546875 361.214844 222.578125 362.757812 221.445312 C 366.273438 218.894531 369.074219 215.714844 371.160156 211.902344 C 371.515625 211.242188 370.5 210.644531 370.148438 211.316406 C 369.265625 212.914062 368.242188 214.414062 367.070312 215.8125 C 365.902344 217.214844 364.605469 218.488281 363.1875 219.632812 C 361.769531 220.78125 360.253906 221.78125 358.640625 222.636719 C 357.027344 223.488281 355.347656 224.179688 353.601562 224.707031 C 352.210938 225.101562 350.800781 225.382812 349.371094 225.558594 C 347.9375 225.734375 346.5 225.796875 345.058594 225.746094 C 343.617188 225.695312 342.1875 225.535156 340.773438 225.261719 C 339.355469 224.988281 337.96875 224.609375 336.609375 224.121094 C 335.253906 223.632812 333.941406 223.042969 332.675781 222.347656 C 331.410156 221.65625 330.207031 220.867188 329.066406 219.988281 C 327.921875 219.105469 326.855469 218.140625 325.863281 217.09375 C 324.871094 216.046875 323.964844 214.929688 323.148438 213.742188 C 322.71875 213.121094 321.707031 213.742188 322.132812 214.339844 Z M 322.089844 214.339844 " fill-opacity="1" fill-rule="nonzero"/><path fill="#517077" d="M 374.328125 184.96875 L 374.828125 190.777344 C 374.832031 190.9375 374.890625 191.074219 375.003906 191.1875 C 375.117188 191.300781 375.253906 191.359375 375.414062 191.367188 C 375.578125 191.367188 375.714844 191.308594 375.832031 191.195312 C 375.945312 191.078125 376.003906 190.941406 376.003906 190.777344 L 375.507812 184.96875 C 375.5 184.808594 375.441406 184.671875 375.328125 184.558594 C 375.214844 184.445312 375.078125 184.386719 374.917969 184.382812 C 374.753906 184.378906 374.613281 184.433594 374.5 184.550781 C 374.382812 184.667969 374.324219 184.808594 374.328125 184.96875 Z M 374.328125 184.96875 " fill-opacity="1" fill-rule="nonzero"/><path fill="#517077" d="M 343.011719 261.253906 C 348.917969 256.769531 355.3125 253.152344 362.199219 250.398438 C 362.886719 250.125 362.585938 248.988281 361.882812 249.261719 C 354.898438 252.039062 348.414062 255.695312 342.421875 260.238281 C 341.824219 260.683594 342.421875 261.710938 343.011719 261.253906 Z M 343.011719 261.253906 " fill-opacity="1" fill-rule="nonzero"/><path fill="#517077" d="M 358.757812 259.109375 L 361.800781 256.855469 C 361.929688 256.769531 362.007812 256.652344 362.039062 256.5 C 362.074219 256.351562 362.050781 256.210938 361.976562 256.078125 C 361.898438 255.945312 361.785156 255.855469 361.640625 255.8125 C 361.496094 255.765625 361.351562 255.777344 361.214844 255.84375 L 358.167969 258.085938 C 358.03125 258.171875 357.941406 258.292969 357.902344 258.449219 C 357.863281 258.609375 357.882812 258.757812 357.964844 258.898438 C 358.046875 259.035156 358.167969 259.125 358.324219 259.164062 C 358.480469 259.207031 358.625 259.1875 358.765625 259.109375 Z M 358.757812 259.109375 " fill-opacity="1" fill-rule="nonzero"/><path fill="#517077" d="M 312.671875 189.804688 C 313.011719 195.320312 314.128906 200.671875 316.03125 205.863281 C 316.292969 206.574219 317.433594 206.269531 317.167969 205.546875 C 315.285156 200.464844 314.167969 195.214844 313.816406 189.804688 C 313.816406 189.050781 312.601562 189.042969 312.640625 189.804688 Z M 312.671875 189.804688 " fill-opacity="1" fill-rule="nonzero"/><path fill="#517077" d="M 423.105469 192.847656 L 418.394531 215.0625 C 418.242188 215.792969 419.410156 216.078125 419.53125 215.367188 L 424.242188 193.164062 C 424.394531 192.421875 423.226562 192.148438 423.105469 192.847656 Z M 423.105469 192.847656 " fill-opacity="1" fill-rule="nonzero"/><path fill="#517077" d="M 417.117188 220.9375 L 414.285156 261.070312 L 413.480469 272.421875 C 413.429688 273.179688 414.609375 273.179688 414.660156 272.421875 L 417.492188 232.300781 L 418.292969 220.9375 C 418.355469 220.1875 417.175781 220.1875 417.117188 220.9375 Z M 417.117188 220.9375 " fill-opacity="1" fill-rule="nonzero"/><path fill="#f2996d" d="M 446.808594 320.003906 C 452.71875 318.84375 458.613281 318.941406 464.480469 320.296875 C 465.058594 320.429688 465.304688 319.535156 464.726562 319.402344 C 458.6875 318.015625 452.632812 317.921875 446.554688 319.121094 C 445.976562 319.230469 446.21875 320.132812 446.808594 320.003906 Z M 446.808594 320.003906 " fill-opacity="1" fill-rule="nonzero"/><path fill="#517077" d="M 268.714844 187.171875 C 275.820312 193 276.96875 202.6875 277.851562 211.234375 C 277.921875 211.984375 279.101562 211.996094 279.03125 211.234375 C 278.148438 202.390625 276.949219 192.359375 269.578125 186.339844 C 269 185.875 268.15625 186.695312 268.746094 187.171875 Z M 268.714844 187.171875 " fill-opacity="1" fill-rule="nonzero"/><path fill="#517077" d="M 277.304688 225.679688 C 278.027344 235.519531 278.421875 245.378906 278.480469 255.253906 C 278.480469 258.074219 278.480469 260.890625 278.480469 263.699219 C 278.480469 263.863281 278.539062 264 278.652344 264.117188 C 278.769531 264.230469 278.90625 264.289062 279.070312 264.289062 C 279.234375 264.289062 279.371094 264.230469 279.488281 264.117188 C 279.601562 264 279.660156 263.863281 279.660156 263.699219 C 279.765625 253.832031 279.5625 243.96875 279.039062 234.105469 C 278.890625 231.296875 278.710938 228.488281 278.5 225.679688 C 278.5 224.929688 277.273438 224.917969 277.324219 225.679688 Z M 277.304688 225.679688 " fill-opacity="1" fill-rule="nonzero"/><path fill="#2a373f" d="M 338.464844 157.589844 C 340.207031 163.757812 340.695312 170.019531 339.925781 176.382812 C 339.925781 176.511719 339.972656 176.621094 340.0625 176.710938 C 340.15625 176.804688 340.265625 176.847656 340.394531 176.847656 L 342.851562 176.523438 C 343.429688 176.453125 343.429688 175.507812 342.851562 175.601562 L 340.394531 175.925781 L 340.851562 176.382812 C 341.617188 169.925781 341.117188 163.570312 339.347656 157.316406 C 339.3125 157.195312 339.238281 157.101562 339.128906 157.042969 C 339.019531 156.980469 338.902344 156.96875 338.78125 157.003906 C 338.65625 157.039062 338.566406 157.109375 338.503906 157.222656 C 338.445312 157.332031 338.429688 157.449219 338.464844 157.570312 Z M 338.464844 157.589844 " fill-opacity="1" fill-rule="nonzero"/><path fill="#2a373f" d="M 337.867188 183.296875 C 338.855469 183.746094 339.882812 184.074219 340.953125 184.28125 C 342.019531 184.488281 343.09375 184.570312 344.179688 184.523438 C 345.265625 184.480469 346.332031 184.308594 347.378906 184.015625 C 348.425781 183.71875 349.421875 183.308594 350.371094 182.777344 C 350.480469 182.714844 350.550781 182.621094 350.582031 182.496094 C 350.613281 182.375 350.597656 182.257812 350.535156 182.148438 C 350.46875 182.039062 350.375 181.96875 350.253906 181.9375 C 350.128906 181.90625 350.015625 181.921875 349.90625 181.984375 C 349.027344 182.476562 348.101562 182.859375 347.136719 183.136719 C 346.167969 183.410156 345.179688 183.570312 344.175781 183.617188 C 343.167969 183.660156 342.171875 183.589844 341.183594 183.402344 C 340.195312 183.214844 339.242188 182.914062 338.324219 182.503906 C 337.792969 182.261719 337.308594 183.050781 337.867188 183.296875 Z M 337.867188 183.296875 " fill-opacity="1" fill-rule="nonzero"/><path fill="#2a373f" d="M 328.660156 128.433594 C 328.421875 129.515625 328.105469 130.574219 327.714844 131.605469 C 327.320312 132.640625 326.851562 133.640625 326.3125 134.605469 C 325.773438 135.574219 325.164062 136.492188 324.488281 137.367188 C 323.8125 138.246094 323.074219 139.066406 322.277344 139.832031 C 321.480469 140.601562 320.628906 141.304688 319.730469 141.949219 C 318.828125 142.589844 317.882812 143.164062 316.898438 143.664062 C 315.914062 144.167969 314.894531 144.597656 313.847656 144.949219 C 312.796875 145.304688 311.730469 145.578125 310.640625 145.773438 L 308.476562 155.449219 C 303.535156 150.445312 298.460938 145.132812 296.429688 138.453125 C 294.296875 131.398438 295.859375 123.816406 297.648438 116.667969 C 299.332031 109.945312 301.320312 103.035156 305.820312 97.765625 C 310.316406 92.496094 318 89.316406 324.363281 92.058594 C 324.441406 90.367188 324.863281 88.769531 325.636719 87.265625 C 326.410156 85.761719 327.460938 84.484375 328.789062 83.441406 C 331.476562 81.367188 334.484375 79.984375 337.804688 79.289062 C 338.546875 79.105469 339.292969 78.941406 340.046875 78.800781 C 340.796875 78.65625 341.550781 78.535156 342.3125 78.433594 C 343.070312 78.335938 343.828125 78.253906 344.59375 78.195312 C 345.355469 78.136719 346.117188 78.101562 346.882812 78.082031 C 347.648438 78.066406 348.410156 78.070312 349.175781 78.097656 C 349.941406 78.125 350.703125 78.167969 351.464844 78.238281 C 352.226562 78.304688 352.988281 78.394531 353.742188 78.503906 C 354.5 78.613281 355.253906 78.742188 356.003906 78.894531 C 356.753906 79.046875 357.5 79.21875 358.238281 79.410156 C 358.980469 79.601562 359.714844 79.8125 360.441406 80.046875 C 361.171875 80.277344 361.894531 80.53125 362.609375 80.804688 C 363.324219 81.078125 364.027344 81.367188 364.726562 81.679688 C 365.425781 81.992188 366.117188 82.320312 366.796875 82.671875 C 367.476562 83.019531 368.148438 83.386719 368.808594 83.773438 C 369.46875 84.160156 370.117188 84.566406 370.753906 84.988281 C 371.390625 85.410156 372.015625 85.847656 372.628906 86.304688 C 373.246094 86.761719 373.84375 87.234375 374.433594 87.726562 C 375.019531 88.214844 375.59375 88.722656 376.152344 89.242188 C 376.710938 89.765625 377.257812 90.300781 377.789062 90.851562 C 378.316406 91.402344 378.832031 91.96875 379.332031 92.546875 C 379.828125 93.128906 380.3125 93.722656 380.777344 94.328125 C 381.246094 94.933594 381.695312 95.554688 382.125 96.183594 C 382.558594 96.816406 382.972656 97.457031 383.367188 98.113281 C 383.765625 98.765625 384.144531 99.429688 384.503906 100.105469 C 384.863281 100.78125 385.207031 101.464844 385.527344 102.15625 C 385.851562 102.851562 386.152344 103.554688 386.4375 104.265625 C 386.71875 104.976562 386.984375 105.691406 387.226562 106.417969 C 387.472656 107.140625 387.695312 107.875 387.898438 108.609375 C 388.101562 109.347656 388.285156 110.089844 388.449219 110.835938 C 388.613281 111.585938 388.753906 112.335938 388.875 113.089844 C 388.996094 113.847656 389.097656 114.605469 389.175781 115.367188 C 389.257812 116.125 389.316406 116.886719 389.351562 117.652344 C 389.515625 120.808594 389.351562 124.078125 390.5 127.023438 C 391.128906 128.625 392.144531 130.070312 392.894531 131.621094 C 393.324219 132.382812 393.601562 133.191406 393.730469 134.054688 C 393.859375 134.917969 393.832031 135.773438 393.648438 136.625 C 393.148438 138.28125 391.371094 139.671875 389.707031 139.15625 C 389.820312 139.5 389.914062 139.851562 389.984375 140.210938 C 390.054688 140.566406 390.101562 140.925781 390.128906 141.289062 C 390.152344 141.652344 390.15625 142.019531 390.132812 142.382812 C 390.113281 142.746094 390.070312 143.105469 390.003906 143.464844 C 389.941406 143.824219 389.851562 144.175781 389.742188 144.523438 C 389.632812 144.871094 389.503906 145.210938 389.351562 145.539062 C 389.199219 145.871094 389.027344 146.191406 388.835938 146.503906 C 388.644531 146.8125 388.433594 147.109375 388.207031 147.390625 C 387.976562 147.675781 387.730469 147.941406 387.46875 148.195312 C 387.207031 148.449219 386.929688 148.683594 386.636719 148.902344 C 386.347656 149.121094 386.042969 149.320312 385.726562 149.5 C 385.410156 149.679688 385.082031 149.839844 384.746094 149.980469 C 384.410156 150.117188 384.066406 150.234375 383.714844 150.332031 C 383.363281 150.429688 383.007812 150.503906 382.648438 150.554688 C 382.285156 150.609375 381.925781 150.636719 381.558594 150.644531 C 381.195312 150.648438 380.832031 150.632812 380.46875 150.597656 L 380.054688 150.648438 C 377.941406 152.015625 375.082031 150.820312 373.222656 149.125 C 371.363281 147.429688 369.933594 145.207031 367.710938 144.046875 C 365.089844 142.675781 361.964844 143.03125 359.011719 143.03125 C 356.21875 143.042969 353.460938 142.730469 350.738281 142.101562 C 348.015625 141.472656 345.402344 140.539062 342.898438 139.304688 C 340.390625 138.070312 338.0625 136.5625 335.90625 134.785156 C 333.75 133.011719 331.824219 131.011719 330.128906 128.789062 Z M 328.660156 128.433594 " fill-opacity="1" fill-rule="nonzero"/><path fill="#2a373f" d="M 324.742188 81.746094 C 324.226562 82.53125 323.820312 83.375 323.523438 84.265625 C 323.226562 85.160156 323.046875 86.074219 322.984375 87.011719 C 322.925781 87.953125 322.984375 88.882812 323.160156 89.808594 C 323.339844 90.730469 323.632812 91.617188 324.039062 92.464844 C 324.304688 93.003906 325.054688 92.535156 324.832031 92 C 324.464844 91.222656 324.203125 90.410156 324.046875 89.566406 C 323.890625 88.71875 323.84375 87.867188 323.90625 87.011719 C 323.964844 86.15625 324.136719 85.320312 324.414062 84.507812 C 324.691406 83.691406 325.066406 82.929688 325.542969 82.210938 C 325.867188 81.714844 325.066406 81.257812 324.742188 81.746094 Z M 324.742188 81.746094 " fill-opacity="1" fill-rule="nonzero"/><path fill="#2a373f" d="M 315.988281 88.425781 C 317.566406 88.457031 319.058594 88.828125 320.46875 89.542969 C 321.875 90.253906 323.058594 91.234375 324.019531 92.484375 C 324.375 92.953125 325.175781 92.484375 324.820312 92.019531 C 324.304688 91.335938 323.714844 90.71875 323.054688 90.167969 C 322.398438 89.617188 321.6875 89.148438 320.921875 88.757812 C 320.15625 88.367188 319.359375 88.070312 318.527344 87.859375 C 317.691406 87.652344 316.847656 87.539062 315.988281 87.519531 C 315.863281 87.519531 315.757812 87.566406 315.667969 87.65625 C 315.578125 87.746094 315.535156 87.851562 315.535156 87.976562 C 315.535156 88.105469 315.578125 88.210938 315.667969 88.300781 C 315.757812 88.390625 315.863281 88.433594 315.988281 88.433594 Z M 315.988281 88.425781 " fill-opacity="1" fill-rule="nonzero"/><path fill="#2a373f" d="M 328.070312 126.140625 C 328.566406 128.578125 329.453125 130.859375 330.734375 132.992188 C 332.015625 135.121094 333.621094 136.976562 335.542969 138.554688 C 337.597656 140.230469 339.886719 141.472656 342.414062 142.285156 C 344.9375 143.09375 347.523438 143.417969 350.167969 143.257812 C 353.242188 143.082031 356.140625 142.285156 358.867188 140.859375 C 359.398438 140.585938 358.929688 139.84375 358.402344 140.066406 C 356.050781 141.28125 353.5625 142.015625 350.933594 142.277344 C 348.300781 142.539062 345.714844 142.304688 343.175781 141.582031 C 342.285156 141.3125 341.421875 140.984375 340.578125 140.597656 C 339.734375 140.214844 338.917969 139.773438 338.136719 139.277344 C 337.351562 138.78125 336.605469 138.234375 335.894531 137.636719 C 335.183594 137.039062 334.515625 136.398438 333.894531 135.710938 C 333.269531 135.023438 332.699219 134.296875 332.171875 133.53125 C 331.648438 132.765625 331.175781 131.96875 330.761719 131.136719 C 330.34375 130.308594 329.984375 129.457031 329.683594 128.578125 C 329.382812 127.699219 329.144531 126.804688 328.964844 125.894531 C 328.851562 125.308594 327.949219 125.5625 328.070312 126.140625 Z M 328.070312 126.140625 " fill-opacity="1" fill-rule="nonzero"/><path fill="#f2996d" d="M 379.832031 153.367188 C 379.050781 156.167969 378.421875 159.003906 377.941406 161.875 C 377.851562 162.453125 378.734375 162.707031 378.835938 162.117188 C 379.304688 159.25 379.933594 156.417969 380.722656 153.621094 C 380.746094 153.503906 380.722656 153.394531 380.660156 153.292969 C 380.59375 153.191406 380.507812 153.125 380.390625 153.09375 C 380.277344 153.058594 380.164062 153.070312 380.058594 153.121094 C 379.953125 153.175781 379.875 153.257812 379.832031 153.367188 Z M 379.832031 153.367188 " fill-opacity="1" fill-rule="nonzero"/><path fill="#f2996d" d="M 379.128906 159.90625 C 379.785156 159.855469 380.40625 159.679688 380.988281 159.378906 C 381.527344 159.066406 381.90625 158.621094 382.125 158.039062 C 382.347656 157.453125 382.28125 156.902344 381.933594 156.382812 C 381.753906 156.121094 381.519531 155.925781 381.230469 155.796875 C 380.941406 155.667969 380.640625 155.628906 380.328125 155.671875 C 380.207031 155.707031 380.113281 155.777344 380.050781 155.886719 C 379.992188 155.996094 379.976562 156.113281 380.007812 156.234375 C 380.042969 156.355469 380.113281 156.449219 380.222656 156.511719 C 380.335938 156.574219 380.449219 156.589844 380.570312 156.554688 C 380.492188 156.554688 380.621094 156.554688 380.644531 156.554688 L 380.683594 156.554688 C 380.761719 156.566406 380.832031 156.597656 380.898438 156.644531 C 380.898438 156.644531 381.007812 156.726562 380.949219 156.644531 C 380.988281 156.675781 381.019531 156.707031 381.050781 156.746094 C 381.050781 156.746094 381.140625 156.847656 381.101562 156.746094 C 381.128906 156.785156 381.15625 156.828125 381.179688 156.871094 C 381.207031 156.910156 381.226562 156.949219 381.242188 156.992188 C 381.242188 156.921875 381.242188 157.042969 381.242188 157.0625 C 381.242188 157.082031 381.242188 157.195312 381.242188 157.125 C 381.246094 157.179688 381.246094 157.238281 381.242188 157.296875 C 381.230469 157.460938 381.191406 157.617188 381.121094 157.761719 C 381.039062 157.925781 380.9375 158.074219 380.804688 158.199219 C 380.746094 158.265625 380.675781 158.324219 380.601562 158.371094 L 380.289062 158.566406 C 379.894531 158.742188 379.480469 158.847656 379.050781 158.878906 C 378.921875 158.882812 378.816406 158.929688 378.726562 159.015625 C 378.636719 159.105469 378.585938 159.210938 378.582031 159.335938 C 378.585938 159.464844 378.632812 159.574219 378.722656 159.664062 C 378.8125 159.753906 378.921875 159.800781 379.050781 159.804688 Z M 379.128906 159.90625 " fill-opacity="1" fill-rule="nonzero"/><path fill="#f2996d" d="M 380.925781 152.777344 L 380.988281 152.707031 L 381.101562 152.574219 L 381.324219 152.363281 L 381.394531 152.300781 L 381.527344 152.199219 C 381.621094 152.140625 381.71875 152.085938 381.820312 152.039062 L 381.953125 151.976562 C 382.003906 151.976562 381.882812 151.976562 381.953125 151.976562 L 382.023438 151.976562 L 382.339844 151.875 L 382.570312 151.875 C 382.570312 151.875 382.664062 151.875 382.570312 151.875 C 382.480469 151.875 382.570312 151.875 382.621094 151.875 L 382.886719 151.875 C 383.011719 151.871094 383.117188 151.828125 383.207031 151.738281 C 383.296875 151.648438 383.339844 151.542969 383.34375 151.417969 C 383.34375 151.292969 383.296875 151.183594 383.210938 151.09375 C 383.121094 151.007812 383.011719 150.960938 382.886719 150.960938 C 382.332031 150.964844 381.808594 151.089844 381.316406 151.347656 C 380.824219 151.601562 380.417969 151.953125 380.09375 152.402344 C 380.03125 152.511719 380.015625 152.628906 380.046875 152.75 C 380.078125 152.871094 380.148438 152.964844 380.257812 153.03125 C 380.371094 153.089844 380.488281 153.105469 380.609375 153.070312 C 380.734375 153.039062 380.828125 152.96875 380.898438 152.859375 Z M 380.925781 152.777344 " fill-opacity="1" fill-rule="nonzero"/><path fill="#f2996d" d="M 377.273438 163.710938 C 376.96875 165.03125 376.5625 166.316406 376.054688 167.570312 C 376.023438 167.691406 376.035156 167.808594 376.097656 167.917969 C 376.15625 168.027344 376.25 168.101562 376.371094 168.136719 C 376.492188 168.167969 376.609375 168.152344 376.71875 168.089844 C 376.828125 168.027344 376.902344 167.933594 376.9375 167.8125 C 377.453125 166.5625 377.863281 165.277344 378.167969 163.957031 C 378.191406 163.832031 378.175781 163.71875 378.113281 163.609375 C 378.050781 163.5 377.960938 163.425781 377.839844 163.386719 C 377.71875 163.359375 377.601562 163.375 377.492188 163.4375 C 377.382812 163.5 377.308594 163.589844 377.273438 163.710938 Z M 377.273438 163.710938 " fill-opacity="1" fill-rule="nonzero"/><path fill="#f2996d" d="M 306.226562 155.0625 C 307.195312 158.980469 308.441406 162.8125 309.960938 166.554688 C 310.183594 167.09375 311.078125 166.859375 310.855469 166.3125 C 309.332031 162.570312 308.082031 158.738281 307.109375 154.820312 C 307.074219 154.699219 307.003906 154.605469 306.890625 154.542969 C 306.78125 154.480469 306.667969 154.464844 306.542969 154.5 C 306.421875 154.535156 306.332031 154.605469 306.269531 154.714844 C 306.207031 154.824219 306.191406 154.941406 306.226562 155.0625 Z M 306.226562 155.0625 " fill-opacity="1" fill-rule="nonzero"/><path fill="#f2996d" d="M 307.59375 159.429688 C 306.640625 159.703125 305.878906 158.542969 305.492188 157.84375 C 305.238281 157.449219 305.160156 157.023438 305.25 156.566406 C 305.285156 156.386719 305.375 156.238281 305.519531 156.128906 C 305.664062 156.015625 305.828125 155.964844 306.011719 155.976562 C 306.132812 156.007812 306.25 155.992188 306.359375 155.929688 C 306.46875 155.867188 306.539062 155.773438 306.570312 155.652344 C 306.601562 155.53125 306.589844 155.414062 306.527344 155.304688 C 306.464844 155.191406 306.375 155.121094 306.253906 155.082031 C 305.90625 155.015625 305.570312 155.0625 305.25 155.214844 C 304.929688 155.367188 304.6875 155.601562 304.519531 155.914062 C 304.1875 156.632812 304.203125 157.34375 304.570312 158.046875 C 304.863281 158.683594 305.265625 159.242188 305.777344 159.722656 C 306.042969 159.988281 306.355469 160.175781 306.714844 160.28125 C 307.078125 160.386719 307.441406 160.394531 307.808594 160.3125 C 307.929688 160.277344 308.023438 160.207031 308.085938 160.097656 C 308.148438 159.984375 308.160156 159.871094 308.128906 159.746094 C 308.09375 159.625 308.023438 159.535156 307.914062 159.472656 C 307.800781 159.410156 307.6875 159.394531 307.566406 159.429688 Z M 307.59375 159.429688 " fill-opacity="1" fill-rule="nonzero"/><path fill="#f2996d" d="M 298.277344 151.480469 C 298.226562 151.082031 298.34375 150.742188 298.632812 150.464844 C 299 150.113281 299.433594 149.953125 299.941406 149.976562 C 301.066406 150.125 302.046875 150.582031 302.886719 151.347656 C 302.996094 151.414062 303.109375 151.429688 303.234375 151.398438 C 303.355469 151.367188 303.449219 151.292969 303.515625 151.183594 C 303.574219 151.074219 303.585938 150.957031 303.550781 150.835938 C 303.519531 150.714844 303.449219 150.621094 303.34375 150.554688 C 302.820312 150.066406 302.222656 149.695312 301.550781 149.441406 C 300.882812 149.1875 300.191406 149.074219 299.472656 149.09375 C 299.15625 149.125 298.855469 149.214844 298.574219 149.367188 C 298.292969 149.523438 298.054688 149.726562 297.855469 149.980469 C 297.660156 150.230469 297.519531 150.511719 297.441406 150.824219 C 297.359375 151.132812 297.34375 151.445312 297.394531 151.761719 C 297.503906 152.34375 298.410156 152.097656 298.277344 151.519531 Z M 298.277344 151.480469 " fill-opacity="1" fill-rule="nonzero"/><path fill="#f2996d" d="M 298.734375 155.285156 C 298.921875 156.570312 299.4375 157.703125 300.285156 158.6875 C 300.378906 158.773438 300.484375 158.816406 300.609375 158.816406 C 300.734375 158.816406 300.84375 158.773438 300.9375 158.6875 C 301.023438 158.597656 301.066406 158.488281 301.066406 158.363281 C 301.066406 158.234375 301.023438 158.128906 300.9375 158.039062 C 300.769531 157.835938 300.613281 157.625 300.46875 157.40625 C 300.316406 157.160156 300.179688 156.902344 300.0625 156.636719 C 300.007812 156.527344 299.964844 156.417969 299.929688 156.300781 C 299.929688 156.167969 299.839844 156.039062 299.800781 155.894531 C 299.71875 155.617188 299.65625 155.332031 299.617188 155.042969 C 299.582031 154.921875 299.511719 154.828125 299.402344 154.765625 C 299.289062 154.703125 299.175781 154.6875 299.050781 154.722656 C 298.929688 154.753906 298.839844 154.828125 298.777344 154.9375 C 298.714844 155.046875 298.699219 155.164062 298.734375 155.285156 Z M 298.734375 155.285156 " fill-opacity="1" fill-rule="nonzero"/><path fill="#f2996d" d="M 301.503906 153.964844 C 302.320312 153.886719 303.113281 154 303.875 154.292969 C 304.640625 154.589844 305.296875 155.042969 305.847656 155.652344 C 306.253906 156.089844 306.863281 155.4375 306.5 154.992188 C 305.863281 154.296875 305.105469 153.78125 304.226562 153.4375 C 303.351562 153.09375 302.441406 152.964844 301.503906 153.042969 C 301.390625 153.058594 301.296875 153.113281 301.21875 153.199219 C 301.144531 153.285156 301.105469 153.390625 301.105469 153.503906 C 301.105469 153.621094 301.144531 153.722656 301.21875 153.808594 C 301.296875 153.898438 301.390625 153.949219 301.503906 153.964844 Z M 301.503906 153.964844 " fill-opacity="1" fill-rule="nonzero"/><path fill="#f2996d" d="M 386.703125 153.253906 C 386.425781 154.679688 385.878906 155.992188 385.070312 157.195312 C 385.003906 157.304688 384.988281 157.421875 385.019531 157.542969 C 385.050781 157.667969 385.121094 157.761719 385.230469 157.824219 C 385.339844 157.886719 385.457031 157.902344 385.578125 157.871094 C 385.699219 157.839844 385.792969 157.769531 385.859375 157.660156 C 386.714844 156.390625 387.292969 155 387.597656 153.5 C 387.652344 153.371094 387.648438 153.242188 387.585938 153.113281 C 387.523438 152.988281 387.425781 152.90625 387.289062 152.867188 C 387.152344 152.832031 387.027344 152.851562 386.910156 152.929688 C 386.789062 153.007812 386.722656 153.117188 386.703125 153.253906 Z M 386.703125 153.253906 " fill-opacity="1" fill-rule="nonzero"/><path fill="#f2996d" d="M 379.992188 156.828125 C 380.347656 156.289062 380.8125 155.875 381.394531 155.585938 C 381.972656 155.300781 382.585938 155.179688 383.230469 155.226562 C 383.359375 155.226562 383.464844 155.179688 383.554688 155.089844 C 383.644531 155.003906 383.6875 154.894531 383.6875 154.769531 C 383.6875 154.640625 383.644531 154.53125 383.554688 154.441406 C 383.464844 154.351562 383.359375 154.304688 383.230469 154.300781 C 382.421875 154.246094 381.652344 154.402344 380.925781 154.765625 C 380.199219 155.128906 379.613281 155.652344 379.171875 156.332031 C 378.855469 156.839844 379.648438 157.296875 379.960938 156.796875 Z M 379.992188 156.828125 " fill-opacity="1" fill-rule="nonzero"/><path fill="#e1e1e1" d="M 533.246094 335.699219 C 533.246094 336.152344 533.113281 336.601562 532.855469 337.042969 C 532.59375 337.488281 532.207031 337.921875 531.695312 338.339844 C 531.1875 338.757812 530.558594 339.15625 529.816406 339.53125 C 529.074219 339.910156 528.230469 340.257812 527.285156 340.578125 C 526.34375 340.898438 525.316406 341.1875 524.203125 341.4375 C 523.09375 341.6875 521.921875 341.902344 520.6875 342.074219 C 519.453125 342.25 518.179688 342.378906 516.871094 342.46875 C 515.5625 342.558594 514.238281 342.601562 512.902344 342.601562 C 511.566406 342.601562 510.242188 342.558594 508.933594 342.46875 C 507.625 342.378906 506.351562 342.25 505.117188 342.074219 C 503.882812 341.902344 502.710938 341.6875 501.601562 341.4375 C 500.488281 341.1875 499.460938 340.898438 498.519531 340.578125 C 497.574219 340.257812 496.730469 339.910156 495.988281 339.53125 C 495.246094 339.15625 494.621094 338.757812 494.109375 338.339844 C 493.597656 337.921875 493.210938 337.488281 492.949219 337.042969 C 492.691406 336.601562 492.558594 336.152344 492.558594 335.699219 C 492.558594 335.246094 492.691406 334.796875 492.949219 334.351562 C 493.210938 333.90625 493.597656 333.472656 494.109375 333.054688 C 494.621094 332.636719 495.246094 332.238281 495.988281 331.863281 C 496.730469 331.484375 497.574219 331.136719 498.519531 330.816406 C 499.460938 330.496094 500.488281 330.210938 501.601562 329.957031 C 502.710938 329.707031 503.882812 329.492188 505.117188 329.320312 C 506.351562 329.144531 507.625 329.015625 508.933594 328.925781 C 510.242188 328.839844 511.566406 328.792969 512.902344 328.792969 C 514.238281 328.792969 515.5625 328.839844 516.871094 328.925781 C 518.179688 329.015625 519.453125 329.144531 520.6875 329.320312 C 521.921875 329.492188 523.09375 329.707031 524.203125 329.957031 C 525.316406 330.210938 526.34375 330.496094 527.285156 330.816406 C 528.230469 331.136719 529.074219 331.484375 529.816406 331.863281 C 530.558594 332.238281 531.1875 332.636719 531.695312 333.054688 C 532.207031 333.472656 532.59375 333.90625 532.855469 334.351562 C 533.113281 334.796875 533.246094 335.246094 533.246094 335.699219 Z M 533.246094 335.699219 " fill-opacity="1" fill-rule="nonzero"/><g clip-path="url(#c733e3302d)"><g clip-path="url(#484eec0857)"><path fill="#7f5132" d="M 531.886719 341.464844 C 531.886719 341.917969 531.761719 342.367188 531.519531 342.8125 C 531.277344 343.253906 530.917969 343.6875 530.441406 344.105469 C 529.964844 344.523438 529.378906 344.921875 528.6875 345.300781 C 527.992188 345.675781 527.207031 346.023438 526.324219 346.34375 C 525.445312 346.664062 524.484375 346.953125 523.449219 347.203125 C 522.414062 347.457031 521.316406 347.667969 520.167969 347.84375 C 519.015625 348.015625 517.828125 348.144531 516.605469 348.234375 C 515.382812 348.324219 514.148438 348.367188 512.902344 348.367188 C 511.65625 348.367188 510.421875 348.324219 509.199219 348.234375 C 507.976562 348.144531 506.789062 348.015625 505.636719 347.84375 C 504.488281 347.667969 503.390625 347.457031 502.355469 347.203125 C 501.320312 346.953125 500.359375 346.664062 499.480469 346.34375 C 498.597656 346.023438 497.8125 345.675781 497.117188 345.300781 C 496.425781 344.921875 495.839844 344.523438 495.363281 344.105469 C 494.886719 343.6875 494.527344 343.253906 494.285156 342.8125 C 494.042969 342.367188 493.917969 341.917969 493.917969 341.464844 C 493.917969 341.011719 494.042969 340.5625 494.285156 340.117188 C 494.527344 339.671875 494.886719 339.242188 495.363281 338.820312 C 495.839844 338.402344 496.425781 338.003906 497.117188 337.628906 C 497.8125 337.25 498.597656 336.902344 499.480469 336.582031 C 500.359375 336.261719 501.320312 335.976562 502.355469 335.722656 C 503.390625 335.472656 504.488281 335.257812 505.636719 335.085938 C 506.789062 334.914062 507.976562 334.78125 509.199219 334.691406 C 510.421875 334.605469 511.65625 334.5625 512.902344 334.5625 C 514.148438 334.5625 515.382812 334.605469 516.605469 334.691406 C 517.828125 334.78125 519.015625 334.914062 520.167969 335.085938 C 521.316406 335.257812 522.414062 335.472656 523.449219 335.722656 C 524.484375 335.976562 525.445312 336.261719 526.324219 336.582031 C 527.207031 336.902344 527.992188 337.25 528.6875 337.628906 C 529.378906 338.003906 529.964844 338.402344 530.441406 338.820312 C 530.917969 339.242188 531.277344 339.671875 531.519531 340.117188 C 531.761719 340.5625 531.886719 341.011719 531.886719 341.464844 Z M 531.886719 341.464844 " fill-opacity="1" fill-rule="nonzero"/></g></g><g clip-path="url(#cab242414c)"><path fill="#ff735c" d="M 536.085938 372.234375 C 535.804688 372.25 535.519531 372.25 535.234375 372.234375 C 534.421875 372.128906 533.632812 371.925781 532.871094 371.625 C 532.109375 371.328125 531.390625 370.941406 530.722656 370.46875 C 530.050781 369.996094 529.449219 369.453125 528.910156 368.835938 C 528.371094 368.214844 527.914062 367.542969 527.539062 366.8125 C 526.667969 365.203125 526.058594 363.5 525.710938 361.703125 C 525.363281 359.902344 525.296875 358.09375 525.511719 356.277344 C 526.324219 348.09375 531.996094 341.921875 538.199219 342.550781 C 544.402344 343.179688 548.757812 350.328125 547.933594 358.507812 C 547.164062 366.277344 541.933594 372.234375 536.085938 372.234375 Z M 537.324219 346.609375 C 533.652344 346.609375 530.21875 351.066406 529.632812 356.640625 C 529.460938 358.03125 529.503906 359.414062 529.761719 360.789062 C 530.019531 362.164062 530.480469 363.46875 531.144531 364.703125 C 531.574219 365.59375 532.1875 366.335938 532.980469 366.929688 C 533.777344 367.523438 534.664062 367.902344 535.640625 368.0625 C 539.5 368.425781 543.214844 363.859375 543.761719 358.050781 C 544.332031 352.246094 541.578125 347.015625 537.742188 346.640625 Z M 537.324219 346.609375 " fill-opacity="1" fill-rule="nonzero"/></g><path fill="#d1584b" d="M 532.949219 344.253906 L 533.082031 347.433594 C 533.089844 347.59375 533.148438 347.734375 533.265625 347.847656 C 533.378906 347.960938 533.519531 348.019531 533.683594 348.023438 C 533.84375 348.023438 533.984375 347.964844 534.097656 347.851562 C 534.214844 347.734375 534.269531 347.597656 534.269531 347.433594 L 534.140625 344.253906 C 534.136719 344.09375 534.078125 343.953125 533.964844 343.839844 C 533.851562 343.722656 533.710938 343.664062 533.550781 343.65625 C 533.386719 343.660156 533.246094 343.71875 533.128906 343.835938 C 533.011719 343.953125 532.953125 344.089844 532.949219 344.253906 Z M 532.949219 344.253906 " fill-opacity="1" fill-rule="nonzero"/><path fill="#d1584b" d="M 532.585938 368.03125 L 532.585938 370.195312 C 532.585938 370.355469 532.644531 370.496094 532.757812 370.609375 C 532.871094 370.726562 533.011719 370.78125 533.175781 370.78125 C 533.335938 370.78125 533.476562 370.726562 533.589844 370.609375 C 533.707031 370.496094 533.761719 370.355469 533.761719 370.195312 L 533.761719 368.03125 C 533.761719 367.867188 533.707031 367.726562 533.589844 367.613281 C 533.476562 367.496094 533.335938 367.4375 533.175781 367.433594 C 533.011719 367.4375 532.875 367.5 532.761719 367.613281 C 532.644531 367.730469 532.589844 367.871094 532.585938 368.03125 Z M 532.585938 368.03125 " fill-opacity="1" fill-rule="nonzero"/></svg>