<svg width="18" height="21" viewBox="0 0 18 21" fill="none" xmlns="http://www.w3.org/2000/svg">
<g clip-path="url(#clip0_109_84)">
<path d="M1.46725 18.0782L0 0.146729L17.5228 0.182763L15.9713 18.0782L8.82753 20.1467L1.46725 18.0782Z" fill="#1B73BA"/>
<path d="M8.8689 18.5003V1.8623L16.1187 1.88644L14.8259 16.7725L8.8689 18.5003Z" fill="#1C88C7"/>
<path d="M14.3185 3.98926H3.16602L3.46814 6.16402H8.76038L3.55275 8.39941L3.85473 10.5018H11.5275L11.2495 13.4378L8.65163 13.9454L6.29556 13.3413L6.11426 11.6738H3.95142L4.24133 15.1416L8.8812 16.4345L13.3278 15.0208L13.8957 8.24225H9.19525L14.3184 6.11575L14.3185 3.98926Z" fill="white"/>
</g>
<defs>
<clipPath id="clip0_109_84">
<rect width="17.6048" height="20.1613" fill="white" transform="translate(0 0.112793)"/>
</clipPath>
</defs>
</svg>
