<svg xmlns="http://www.w3.org/2000/svg" xmlns:xlink="http://www.w3.org/1999/xlink" width="672" zoomAndPan="magnify" viewBox="0 0 504 359.999987" height="480" preserveAspectRatio="xMidYMid meet" version="1.0"><defs><clipPath id="724a70f6eb"><path d="M 93 82 L 191.199219 82 L 191.199219 180.417969 L 93 180.417969 Z M 93 82 " clip-rule="nonzero"/></clipPath><clipPath id="b6117222a4"><path d="M 116 82 L 191.199219 82 L 191.199219 180.417969 L 116 180.417969 Z M 116 82 " clip-rule="nonzero"/></clipPath><clipPath id="f5798abd4e"><path d="M 143.210938 7 L 399 7 L 399 342 L 143.210938 342 Z M 143.210938 7 " clip-rule="nonzero"/></clipPath><clipPath id="fdf8d970e5"><path d="M 143.210938 118 L 201 118 L 201 215 L 143.210938 215 Z M 143.210938 118 " clip-rule="nonzero"/></clipPath><clipPath id="15b35e88b9"><path d="M 143.210938 200 L 168 200 L 168 281 L 143.210938 281 Z M 143.210938 200 " clip-rule="nonzero"/></clipPath><clipPath id="0c7d44922d"><path d="M 143.210938 266 L 168 266 L 168 319 L 143.210938 319 Z M 143.210938 266 " clip-rule="nonzero"/></clipPath><clipPath id="0fed140a63"><path d="M 143.210938 304 L 172 304 L 172 342 L 143.210938 342 Z M 143.210938 304 " clip-rule="nonzero"/></clipPath><clipPath id="d201e18e09"><path d="M 368 0.507812 L 503.480469 0.507812 L 503.480469 79 L 368 79 Z M 368 0.507812 " clip-rule="nonzero"/></clipPath><clipPath id="c008ec26f4"><path d="M 375 4 L 503.480469 4 L 503.480469 117 L 375 117 Z M 375 4 " clip-rule="nonzero"/></clipPath></defs><path fill="#f1487a" d="M 128.613281 54.605469 C 127.757812 48.863281 122.898438 44.824219 117.757812 45.585938 C 116.394531 45.796875 115.144531 46.324219 114.0625 47.089844 L 114.039062 47.105469 C 113.273438 47.65625 112.589844 48.328125 112 49.101562 C 105.984375 54.1875 102.035156 50.089844 100.914062 48.621094 L 96.820312 21.195312 L 68.894531 25.355469 C 66.847656 24.425781 62.933594 21.683594 65.757812 15.113281 C 66.328125 14.332031 66.773438 13.484375 67.074219 12.582031 L 67.09375 12.554688 L 67.085938 12.554688 C 67.503906 11.296875 67.644531 9.949219 67.445312 8.589844 C 66.683594 3.445312 61.402344 -0.0351562 55.652344 0.820312 C 49.910156 1.683594 45.871094 6.539062 46.632812 11.683594 C 46.832031 13.050781 47.371094 14.289062 48.132812 15.371094 L 48.125 15.378906 L 48.148438 15.398438 C 48.703125 16.175781 49.375 16.855469 50.144531 17.433594 C 54.761719 22.90625 51.8125 26.660156 50.128906 28.152344 L 22.199219 32.3125 L 26.199219 59.214844 L 26.121094 59.226562 C 26.121094 59.226562 24.121094 67.1875 15.460938 63.472656 C 14.683594 62.902344 13.835938 62.460938 12.9375 62.160156 L 12.90625 62.140625 C 11.648438 61.730469 10.308594 61.589844 8.941406 61.789062 C 3.792969 62.550781 0.324219 67.832031 1.175781 73.574219 C 2.035156 79.324219 6.894531 83.363281 12.035156 82.59375 C 13.398438 82.390625 14.648438 81.863281 15.730469 81.101562 L 15.753906 81.074219 C 16.527344 80.53125 17.203125 79.851562 17.792969 79.082031 C 24.984375 73.003906 29.214844 80.035156 29.214844 80.035156 L 29.300781 80.027344 L 33.304688 106.941406 L 60.210938 102.933594 C 60.210938 102.933594 68.171875 104.929688 64.453125 113.589844 C 63.890625 114.367188 63.445312 115.214844 63.144531 116.121094 L 63.128906 116.144531 L 63.136719 116.144531 C 62.71875 117.402344 62.566406 118.75 62.777344 120.117188 C 63.539062 125.253906 68.820312 128.734375 74.558594 127.878906 C 80.308594 127.023438 84.351562 122.164062 83.578125 117.015625 C 83.378906 115.648438 82.851562 114.410156 82.078125 113.328125 L 82.085938 113.320312 L 82.0625 113.304688 C 81.507812 112.53125 80.839844 111.84375 80.066406 111.265625 C 74 104.074219 81.015625 99.84375 81.023438 99.832031 L 107.9375 95.828125 L 103.855469 68.402344 C 104.5 66.667969 107.089844 61.605469 114.332031 64.714844 C 115.109375 65.285156 115.957031 65.730469 116.855469 66.03125 L 116.886719 66.046875 L 116.886719 66.039062 C 118.144531 66.457031 119.484375 66.601562 120.851562 66.398438 C 126 65.636719 129.46875 60.355469 128.613281 54.605469 " fill-opacity="1" fill-rule="nonzero"/><path fill="#d9346d" d="M 12.035156 82.59375 C 13.398438 82.390625 14.648438 81.863281 15.730469 81.101562 L 15.753906 81.074219 C 16.527344 80.53125 17.203125 79.851562 17.792969 79.082031 C 24.984375 73.003906 29.214844 80.035156 29.214844 80.035156 L 29.300781 80.027344 L 33.304688 106.941406 L 60.210938 102.933594 C 60.210938 102.933594 68.171875 104.929688 64.453125 113.589844 C 63.890625 114.367188 63.445312 115.214844 63.144531 116.121094 L 63.128906 116.144531 L 63.136719 116.144531 C 62.71875 117.402344 62.566406 118.75 62.777344 120.117188 C 63.539062 125.253906 68.820312 128.734375 74.558594 127.878906 C 80.308594 127.023438 84.351562 122.164062 83.578125 117.015625 C 83.378906 115.648438 82.851562 114.410156 82.078125 113.328125 L 82.085938 113.320312 L 82.0625 113.304688 C 81.507812 112.53125 80.839844 111.84375 80.066406 111.265625 C 74 104.074219 81.015625 99.84375 81.023438 99.832031 L 107.9375 95.828125 L 106.007812 82.859375 C 56.09375 79.574219 37.210938 51.09375 30.097656 31.128906 L 22.199219 32.3125 L 26.199219 59.214844 L 26.121094 59.226562 C 26.121094 59.226562 24.121094 67.1875 15.460938 63.472656 C 14.683594 62.90625 13.835938 62.460938 12.9375 62.160156 L 12.90625 62.140625 C 11.648438 61.730469 10.308594 61.589844 8.941406 61.789062 C 3.792969 62.550781 0.324219 67.832031 1.175781 73.574219 C 2.035156 79.324219 6.894531 83.363281 12.035156 82.59375 " fill-opacity="1" fill-rule="nonzero"/><g clip-path="url(#724a70f6eb)"><path fill="#f8bb57" d="M 138.664062 92.449219 C 138.664062 92.449219 132.722656 98.105469 140.222656 103.808594 C 141.09375 104.210938 141.90625 104.730469 142.609375 105.367188 L 142.636719 105.382812 L 142.628906 105.382812 C 143.609375 106.269531 144.40625 107.367188 144.898438 108.660156 C 146.761719 113.511719 143.875 119.136719 138.453125 121.214844 C 133.03125 123.300781 127.121094 121.054688 125.261719 116.203125 C 124.757812 114.914062 124.617188 113.570312 124.742188 112.253906 L 124.75 112.222656 C 124.851562 111.28125 125.09375 110.351562 125.488281 109.472656 C 127.230469 100.21875 119.023438 99.992188 119.023438 99.992188 L 93.628906 109.75 L 103.386719 135.144531 C 103.386719 135.144531 109.050781 141.089844 114.75 133.59375 C 115.152344 132.714844 115.671875 131.902344 116.300781 131.199219 L 116.324219 131.171875 L 116.324219 131.179688 C 117.214844 130.199219 118.3125 129.414062 119.601562 128.910156 C 124.457031 127.050781 130.082031 129.933594 132.160156 135.363281 C 134.246094 140.777344 132 146.6875 127.148438 148.554688 C 125.855469 149.050781 124.515625 149.203125 123.199219 149.066406 L 123.164062 149.058594 C 122.226562 148.96875 121.296875 148.707031 120.40625 148.328125 C 111.15625 146.578125 110.929688 154.785156 110.929688 154.785156 L 120.683594 180.179688 L 191.117188 153.125 L 164.066406 82.695312 L 138.664062 92.449219 " fill-opacity="1" fill-rule="nonzero"/></g><path fill="#f9ad30" d="M 160.671875 83.992188 L 164.066406 82.691406 L 160.671875 83.992188 " fill-opacity="1" fill-rule="nonzero"/><g clip-path="url(#b6117222a4)"><path fill="#fcb034" d="M 120.683594 180.179688 L 116.9375 170.414062 C 134.65625 165.402344 171.46875 147.265625 160.671875 83.992188 L 164.066406 82.695312 L 191.117188 153.125 L 120.683594 180.179688 " fill-opacity="1" fill-rule="nonzero"/></g><path fill="#383736" d="M 360.753906 287.84375 L 360.753906 303.601562 C 360.753906 306.277344 359.042969 308.878906 355.695312 310.886719 L 277.980469 355.703125 C 271.210938 359.566406 260.425781 359.492188 253.734375 355.851562 C 252.617188 355.257812 251.652344 354.441406 250.832031 353.546875 L 205.464844 304.417969 L 205.464844 288.515625 L 251.875 338.90625 C 258.121094 343.664062 270.316406 343.960938 277.753906 339.722656 L 355.472656 294.90625 C 359.042969 292.898438 360.753906 290.371094 360.753906 287.84375 Z M 360.753906 287.84375 " fill-opacity="1" fill-rule="nonzero"/><path fill="#2d2c2b" d="M 355.472656 294.980469 L 277.753906 339.796875 C 270.316406 344.035156 258.121094 343.664062 251.875 338.980469 L 236.03125 321.738281 L 236.03125 337.566406 L 250.832031 353.621094 C 251.652344 354.515625 252.617188 355.332031 253.734375 355.925781 C 260.425781 359.566406 271.210938 359.640625 277.980469 355.777344 L 355.695312 310.960938 C 359.117188 308.953125 360.753906 306.425781 360.753906 303.675781 L 360.753906 287.917969 C 360.753906 290.371094 359.042969 292.898438 355.472656 294.980469 Z M 355.472656 294.980469 " fill-opacity="1" fill-rule="nonzero"/><path fill="#383736" d="M 355.472656 294.980469 L 287.796875 334 L 287.796875 349.980469 L 355.621094 310.8125 C 359.042969 308.804688 360.679688 306.277344 360.679688 303.527344 L 360.679688 287.769531 C 360.753906 290.371094 359.042969 292.898438 355.472656 294.980469 Z M 355.472656 294.980469 " fill-opacity="1" fill-rule="nonzero"/><path fill="#21201f" d="M 355.472656 294.980469 L 333.757812 307.542969 L 333.757812 323.519531 L 355.695312 310.886719 C 359.117188 308.878906 360.753906 306.351562 360.753906 303.601562 L 360.753906 287.84375 C 360.753906 290.371094 359.042969 292.898438 355.472656 294.980469 Z M 355.472656 294.980469 " fill-opacity="1" fill-rule="nonzero"/><path fill="#494846" d="M 205.390625 288.589844 L 251.277344 338.757812 C 251.578125 339.128906 251.949219 339.425781 252.394531 339.722656 C 258.863281 344.109375 270.617188 343.960938 277.902344 339.796875 L 355.621094 294.980469 C 362.984375 290.742188 362.242188 283.683594 354.0625 279.96875 L 267.269531 252.988281 Z M 205.390625 288.589844 " fill-opacity="1" fill-rule="nonzero"/><path fill="#4e5161" d="M 274.261719 273.5 L 256.929688 263.394531 L 297.539062 236.636719 L 314.867188 246.742188 Z M 274.261719 273.5 " fill-opacity="1" fill-rule="nonzero"/><path fill="#989999" d="M 267.566406 322.035156 L 253.0625 313.5625 L 252.839844 255.886719 L 267.34375 264.359375 Z M 267.566406 322.035156 " fill-opacity="1" fill-rule="nonzero"/><path fill="#a1a1a1" d="M 315.460938 236.636719 L 315.683594 294.3125 L 267.566406 322.035156 L 267.34375 264.359375 Z M 315.460938 236.636719 " fill-opacity="1" fill-rule="nonzero"/><path fill="#eaf0f6" d="M 232.089844 293.867188 L 306.835938 250.460938 L 320.222656 259.230469 L 245.476562 302.636719 Z M 232.089844 293.867188 " fill-opacity="1" fill-rule="nonzero"/><g clip-path="url(#f5798abd4e)"><path fill="#494846" d="M 398.3125 22.953125 C 396.082031 21.765625 392.882812 22.359375 389.386719 24.441406 L 180.03125 144.398438 C 172.964844 148.414062 167.238281 158.371094 167.238281 166.472656 L 167.683594 318.617188 L 167.683594 333.183594 C 167.757812 337.195312 169.171875 340.019531 171.402344 341.359375 L 151.25 329.390625 L 147.679688 327.460938 C 145.300781 325.972656 143.960938 323.148438 143.960938 319.136719 L 143.886719 304.640625 L 143.515625 152.351562 C 143.515625 144.324219 149.316406 134.441406 156.230469 130.277344 L 365.292969 9.722656 C 368.859375 7.71875 372.058594 7.421875 374.363281 8.832031 Z M 398.3125 22.953125 " fill-opacity="1" fill-rule="nonzero"/></g><g clip-path="url(#fdf8d970e5)"><path fill="#494846" d="M 156.15625 130.351562 C 149.167969 134.441406 143.441406 144.324219 143.441406 152.425781 L 143.589844 200.8125 L 167.386719 214.859375 L 167.238281 166.546875 C 167.238281 158.519531 173.039062 148.488281 180.03125 144.472656 L 200.1875 132.953125 L 176.238281 118.832031 Z M 156.15625 130.351562 " fill-opacity="1" fill-rule="nonzero"/></g><g clip-path="url(#15b35e88b9)"><path fill="#383736" d="M 143.738281 266.367188 L 167.609375 280.414062 L 167.386719 214.785156 L 143.589844 200.738281 Z M 143.738281 266.367188 " fill-opacity="1" fill-rule="nonzero"/></g><g clip-path="url(#0c7d44922d)"><path fill="#494846" d="M 167.535156 280.414062 L 143.664062 266.367188 L 143.738281 304.492188 L 167.683594 318.542969 Z M 167.535156 280.414062 " fill-opacity="1" fill-rule="nonzero"/></g><g clip-path="url(#0fed140a63)"><path fill="#d6d4d2" d="M 167.683594 333.183594 L 167.683594 318.542969 L 143.8125 304.492188 L 143.8125 304.640625 L 143.886719 319.136719 C 143.886719 323.148438 145.226562 325.972656 147.605469 327.460938 L 151.175781 329.390625 L 171.328125 341.359375 C 169.097656 340.09375 167.757812 337.195312 167.683594 333.183594 Z M 167.683594 333.183594 " fill-opacity="1" fill-rule="nonzero"/></g><path fill="#383736" d="M 313.898438 39.378906 L 245.03125 79.070312 L 269.203125 93.339844 L 338.21875 53.722656 Z M 313.898438 39.378906 " fill-opacity="1" fill-rule="nonzero"/><path fill="#494846" d="M 389.386719 24.441406 C 392.882812 22.359375 396.15625 21.765625 398.3125 22.953125 L 374.363281 8.832031 C 372.058594 7.496094 368.859375 7.71875 365.292969 9.722656 L 313.898438 39.378906 L 338.292969 53.722656 Z M 389.386719 24.441406 " fill-opacity="1" fill-rule="nonzero"/><path fill="#2d2c2b" d="M 176.238281 118.757812 L 200.1875 132.878906 L 269.203125 93.265625 L 245.03125 78.996094 Z M 176.238281 118.757812 " fill-opacity="1" fill-rule="nonzero"/><path fill="#21201f" d="M 402.105469 183.269531 L 167.683594 318.691406 L 167.238281 166.546875 C 167.238281 158.445312 172.964844 148.636719 180.03125 144.472656 L 389.164062 23.847656 C 396.230469 19.683594 401.957031 23.027344 401.957031 31.054688 Z M 402.105469 183.269531 " fill-opacity="1" fill-rule="nonzero"/><path fill="#ffffff" d="M 178.171875 166.472656 C 178.171875 162.3125 181.816406 155.996094 185.609375 153.839844 L 391.097656 35.292969 L 391.171875 176.953125 L 178.542969 299.8125 Z M 178.171875 166.472656 " fill-opacity="1" fill-rule="nonzero"/><path fill="#e9e8e6" d="M 401.957031 197.765625 C 401.957031 205.867188 396.304688 215.75 389.164062 219.839844 L 180.328125 340.390625 C 173.261719 344.480469 167.460938 341.210938 167.460938 333.109375 L 167.386719 318.542969 L 401.882812 183.269531 Z M 401.957031 197.765625 " fill-opacity="1" fill-rule="nonzero"/><path fill="#555555" d="M 292.925781 261.164062 C 292.925781 265.695312 289.730469 271.046875 285.9375 273.277344 C 282.070312 275.582031 278.871094 273.796875 278.871094 269.339844 C 278.871094 264.804688 281.921875 259.378906 285.9375 257.074219 C 289.804688 254.917969 292.925781 256.777344 292.925781 261.164062 Z M 292.925781 261.164062 " fill-opacity="1" fill-rule="nonzero"/><path fill="#a0a8aa" d="M 393.253906 344.183594 L 377.785156 335.265625 C 377.117188 334.890625 376.746094 334.074219 376.746094 332.886719 L 392.214844 341.804688 C 392.214844 342.992188 392.585938 343.8125 393.253906 344.183594 Z M 393.253906 344.183594 " fill-opacity="1" fill-rule="nonzero"/><path fill="#a0a8aa" d="M 468.890625 91.40625 L 484.359375 100.324219 C 483.691406 99.953125 482.796875 100.027344 481.757812 100.546875 L 466.289062 91.628906 C 467.253906 91.109375 468.222656 91.035156 468.890625 91.40625 Z M 468.890625 91.40625 " fill-opacity="1" fill-rule="nonzero"/><path fill="#7e8a8c" d="M 392.214844 341.804688 L 376.746094 332.886719 L 376.222656 147.820312 L 391.691406 156.738281 Z M 392.214844 341.804688 " fill-opacity="1" fill-rule="nonzero"/><path fill="#a0a8aa" d="M 392.214844 341.804688 L 376.820312 332.886719 L 376.820312 326.195312 L 392.214844 335.117188 Z M 392.214844 341.804688 " fill-opacity="1" fill-rule="nonzero"/><path fill="#a0a8aa" d="M 395.335938 150.417969 L 379.867188 141.5 L 466.214844 91.703125 L 481.683594 100.621094 Z M 395.335938 150.417969 " fill-opacity="1" fill-rule="nonzero"/><path fill="#8d9799" d="M 391.691406 156.8125 L 376.222656 147.894531 C 376.222656 145.589844 377.859375 142.691406 379.867188 141.574219 L 395.335938 150.496094 C 393.328125 151.609375 391.617188 154.433594 391.691406 156.8125 Z M 391.691406 156.8125 " fill-opacity="1" fill-rule="nonzero"/><path fill="#21201f" d="M 483.246094 270.230469 L 483.246094 222.515625 L 483.394531 222.515625 L 483.394531 187.136719 L 484.210938 187.136719 L 484.210938 118.460938 L 485.476562 118.460938 L 485.402344 102.703125 C 485.402344 100.398438 483.765625 99.433594 481.683594 100.621094 L 395.335938 150.417969 C 393.328125 151.609375 391.691406 154.433594 391.691406 156.738281 L 392.214844 341.804688 C 392.214844 344.109375 393.851562 345.074219 395.933594 343.886719 L 482.277344 294.089844 C 484.285156 292.898438 485.921875 290.074219 485.921875 287.769531 L 485.847656 270.230469 Z M 483.246094 270.230469 " fill-opacity="1" fill-rule="nonzero"/><path fill="#c4c2c0" d="M 485.847656 274.617188 L 392.140625 328.648438 L 391.691406 169.96875 L 485.402344 115.933594 Z M 485.847656 274.617188 " fill-opacity="1" fill-rule="nonzero"/><path fill="#ffffff" d="M 397.269531 173.164062 L 479.898438 125.519531 L 480.34375 271.417969 L 397.71875 319.0625 Z M 397.269531 173.164062 " fill-opacity="1" fill-rule="nonzero"/><path fill="#c4c2c0" d="M 485.402344 122.472656 L 391.617188 176.582031 L 391.617188 170.042969 L 485.402344 115.933594 Z M 485.402344 122.472656 " fill-opacity="1" fill-rule="nonzero"/><path fill="#d6d4d2" d="M 485.847656 274.617188 L 392.140625 328.648438 L 392.140625 322.109375 L 485.847656 268.074219 Z M 485.847656 274.617188 " fill-opacity="1" fill-rule="nonzero"/><path fill="#a0a8aa" d="M 450.820312 125.96875 C 450.96875 126.191406 450.96875 126.5625 450.96875 126.933594 C 450.96875 127.675781 450.746094 128.496094 450.296875 129.238281 C 449.851562 129.980469 449.332031 130.574219 448.660156 130.945312 L 427.835938 142.914062 C 427.167969 143.285156 426.574219 143.285156 426.203125 143.0625 C 426.574219 143.804688 427.390625 144.027344 428.359375 143.433594 L 449.183594 131.46875 C 449.851562 131.09375 450.371094 130.5 450.820312 129.757812 C 451.265625 129.015625 451.488281 128.195312 451.488281 127.453125 C 451.488281 126.710938 451.265625 126.191406 450.820312 125.96875 Z M 450.820312 125.96875 " fill-opacity="1" fill-rule="nonzero"/><path fill="#7e8a8c" d="M 427.914062 142.839844 L 448.738281 130.871094 C 449.40625 130.5 449.925781 129.90625 450.371094 129.164062 C 450.820312 128.421875 451.042969 127.601562 451.042969 126.859375 C 451.042969 126.488281 450.96875 126.191406 450.894531 125.894531 C 450.445312 125.671875 449.851562 125.671875 449.257812 126.042969 L 428.433594 138.007812 C 427.761719 138.378906 427.242188 138.972656 426.796875 139.71875 C 426.351562 140.460938 426.128906 141.277344 426.128906 142.019531 C 426.128906 142.394531 426.203125 142.691406 426.351562 142.988281 C 426.648438 143.285156 427.242188 143.210938 427.914062 142.839844 Z M 427.914062 142.839844 " fill-opacity="1" fill-rule="nonzero"/><path fill="#ffffff" d="M 384.628906 165.136719 C 383.808594 164.691406 383.066406 164.617188 382.472656 164.914062 L 380.539062 166.027344 C 381.132812 165.730469 381.875 165.804688 382.695312 166.25 C 384.332031 167.21875 385.742188 169.519531 385.742188 171.453125 L 385.667969 195.832031 C 385.667969 196.796875 385.296875 197.46875 384.777344 197.765625 L 386.710938 196.648438 C 387.230469 196.351562 387.601562 195.683594 387.601562 194.71875 L 387.675781 170.339844 C 387.675781 168.40625 386.265625 166.101562 384.628906 165.136719 Z M 384.628906 165.136719 " fill-opacity="1" fill-rule="nonzero"/><path fill="#d6d4d2" d="M 382.695312 166.25 C 381.875 165.804688 381.132812 165.730469 380.539062 166.027344 C 380.015625 166.324219 379.644531 166.996094 379.644531 167.960938 L 379.570312 192.339844 C 379.570312 194.269531 380.910156 196.574219 382.546875 197.542969 C 383.363281 197.988281 384.105469 198.0625 384.703125 197.765625 C 385.222656 197.46875 385.59375 196.796875 385.59375 195.832031 L 385.667969 171.453125 C 385.742188 169.519531 384.40625 167.21875 382.695312 166.25 Z M 382.695312 166.25 " fill-opacity="1" fill-rule="nonzero"/><path fill="#ffffff" d="M 384.554688 203.636719 C 383.734375 203.191406 382.992188 203.117188 382.398438 203.414062 L 380.464844 204.527344 C 381.058594 204.230469 381.800781 204.304688 382.621094 204.75 C 384.257812 205.71875 385.667969 208.019531 385.667969 209.953125 L 385.59375 234.332031 C 385.59375 235.296875 385.222656 235.96875 384.703125 236.265625 L 386.636719 235.148438 C 387.15625 234.851562 387.527344 234.183594 387.527344 233.21875 L 387.601562 208.839844 C 387.527344 206.90625 386.191406 204.527344 384.554688 203.636719 Z M 384.554688 203.636719 " fill-opacity="1" fill-rule="nonzero"/><path fill="#d6d4d2" d="M 382.621094 204.675781 C 381.800781 204.230469 381.058594 204.15625 380.464844 204.453125 C 379.941406 204.75 379.570312 205.417969 379.570312 206.386719 L 379.496094 230.765625 C 379.496094 232.695312 380.835938 235 382.472656 235.96875 C 383.289062 236.414062 384.03125 236.488281 384.628906 236.191406 C 385.148438 235.894531 385.519531 235.222656 385.519531 234.257812 L 385.59375 209.878906 C 385.667969 208.019531 384.257812 205.644531 382.621094 204.675781 Z M 382.621094 204.675781 " fill-opacity="1" fill-rule="nonzero"/><path fill="#f25a5a" d="M 419.507812 207.425781 C 419.507812 219.542969 428.136719 224.445312 438.695312 218.351562 L 438.695312 229.5 C 422.78125 238.71875 409.765625 231.359375 409.691406 213 Z M 419.507812 207.425781 " fill-opacity="1" fill-rule="nonzero"/><path fill="#ffd651" d="M 438.546875 163.203125 C 454.464844 153.988281 467.476562 161.417969 467.476562 179.703125 L 457.808594 185.277344 C 457.808594 173.164062 449.183594 168.257812 438.621094 174.351562 Z M 438.546875 163.203125 " fill-opacity="1" fill-rule="nonzero"/><path fill="#e9e8e6" d="M 467.777344 255.738281 L 467.777344 263.542969 L 410.0625 296.839844 L 410.0625 289.035156 Z M 467.777344 255.738281 " fill-opacity="1" fill-rule="nonzero"/><path fill="#e9e8e6" d="M 467.625 222.8125 L 467.625 230.617188 L 409.914062 263.914062 L 409.914062 256.109375 Z M 467.625 222.8125 " fill-opacity="1" fill-rule="nonzero"/><path fill="#6dcb60" d="M 467.550781 179.703125 C 467.625 197.988281 454.761719 220.285156 438.769531 229.5 L 438.769531 218.351562 C 449.332031 212.257812 457.882812 197.46875 457.882812 185.277344 Z M 467.550781 179.703125 " fill-opacity="1" fill-rule="nonzero"/><path fill="#0074d1" d="M 438.546875 163.203125 L 438.546875 174.351562 C 427.988281 180.445312 419.433594 195.238281 419.433594 207.425781 L 409.691406 213 C 409.691406 194.71875 422.632812 172.417969 438.546875 163.203125 Z M 438.546875 163.203125 " fill-opacity="1" fill-rule="nonzero"/><path fill="#e9e8e6" d="M 467.703125 239.3125 L 467.703125 247.117188 L 409.988281 280.414062 L 409.988281 272.609375 Z M 467.703125 239.3125 " fill-opacity="1" fill-rule="nonzero"/><path fill="#81d672" d="M 196.617188 224.296875 L 240.199219 199.175781 L 240.347656 249.195312 L 196.765625 274.316406 Z M 196.617188 224.296875 " fill-opacity="1" fill-rule="nonzero"/><path fill="#b5e5f4" d="M 260.277344 187.582031 L 303.859375 162.460938 L 304.007812 212.480469 L 260.425781 237.601562 Z M 260.277344 187.582031 " fill-opacity="1" fill-rule="nonzero"/><path fill="#dd4a4a" d="M 323.941406 150.941406 L 367.523438 125.820312 L 367.671875 175.839844 L 324.089844 200.960938 Z M 323.941406 150.941406 " fill-opacity="1" fill-rule="nonzero"/><path fill="#e9e8e6" d="M 192.152344 170.339844 L 376.671875 63.90625 L 376.820312 105.972656 L 192.226562 212.480469 Z M 192.152344 170.339844 " fill-opacity="1" fill-rule="nonzero"/><path fill="#00649b" d="M 375.851562 116.601562 L 368.710938 112.441406 L 368.636719 74.015625 L 375.777344 78.175781 Z M 375.851562 116.601562 " fill-opacity="1" fill-rule="nonzero"/><g clip-path="url(#d201e18e09)"><path fill="#3f9ae0" d="M 375.777344 78.175781 L 368.636719 74.015625 L 496.035156 0.507812 L 503.175781 4.671875 Z M 375.777344 78.175781 " fill-opacity="1" fill-rule="nonzero"/></g><path fill="#006cb5" d="M 375.777344 78.175781 L 368.636719 74.015625 L 470.601562 15.148438 L 477.742188 19.3125 Z M 375.777344 78.175781 " fill-opacity="1" fill-rule="nonzero"/><path fill="#3f9ae0" d="M 375.777344 78.175781 L 368.636719 74.015625 L 445.242188 29.792969 L 452.378906 33.953125 Z M 375.777344 78.175781 " fill-opacity="1" fill-rule="nonzero"/><path fill="#006cb5" d="M 375.777344 78.175781 L 368.636719 74.015625 L 419.136719 44.878906 L 426.277344 49.042969 Z M 375.777344 78.175781 " fill-opacity="1" fill-rule="nonzero"/><path fill="#3f9ae0" d="M 375.777344 78.175781 L 368.636719 74.015625 L 394.445312 59.148438 L 401.585938 63.3125 Z M 375.777344 78.175781 " fill-opacity="1" fill-rule="nonzero"/><g clip-path="url(#c008ec26f4)"><path fill="#0074d1" d="M 503.175781 4.671875 L 503.25 43.097656 L 375.851562 116.601562 L 375.777344 78.175781 Z M 503.175781 4.671875 " fill-opacity="1" fill-rule="nonzero"/></g><path fill="#b2b0af" d="M 397.792969 92.597656 L 395.484375 91.257812 C 397.34375 90.21875 398.832031 88.730469 399.875 86.945312 L 402.179688 88.285156 C 401.0625 90.070312 399.578125 91.554688 397.792969 92.597656 Z M 397.792969 92.597656 " fill-opacity="1" fill-rule="nonzero"/><path fill="#b2b0af" d="M 393.851562 94.898438 L 391.542969 93.5625 L 395.484375 91.332031 L 397.792969 92.671875 Z M 393.851562 94.898438 " fill-opacity="1" fill-rule="nonzero"/><path fill="#b2b0af" d="M 400.023438 77.433594 L 402.328125 78.769531 C 403.371094 79.367188 403.816406 80.628906 403.816406 82.5625 C 403.816406 84.570312 403.296875 86.5 402.179688 88.285156 L 399.875 86.945312 C 400.988281 85.089844 401.511719 83.230469 401.511719 81.222656 C 401.511719 79.292969 400.988281 78.027344 400.023438 77.433594 Z M 400.023438 77.433594 " fill-opacity="1" fill-rule="nonzero"/><path fill="#b2b0af" d="M 403.371094 72.824219 L 405.675781 74.164062 C 405.003906 73.792969 404.1875 73.570312 403.296875 73.570312 C 401.734375 73.644531 400.023438 74.164062 398.015625 75.351562 L 395.710938 74.015625 C 397.71875 72.824219 399.503906 72.304688 400.988281 72.230469 C 401.882812 72.230469 402.699219 72.453125 403.371094 72.824219 Z M 403.371094 72.824219 " fill-opacity="1" fill-rule="nonzero"/><path fill="#b2b0af" d="M 389.535156 80.183594 L 387.230469 78.847656 L 395.636719 74.015625 L 397.941406 75.351562 Z M 389.535156 80.183594 " fill-opacity="1" fill-rule="nonzero"/><path fill="#b2b0af" d="M 389.609375 101.367188 L 387.304688 100.027344 L 387.230469 78.847656 L 389.535156 80.183594 Z M 389.609375 101.367188 " fill-opacity="1" fill-rule="nonzero"/><path fill="#ffffff" d="M 406.863281 75.203125 C 407.757812 76.320312 408.128906 77.953125 408.128906 80.035156 C 408.128906 82.117188 407.757812 84.269531 406.863281 86.351562 C 405.972656 88.433594 404.855469 90.367188 403.296875 92.148438 C 401.734375 93.933594 400.023438 95.347656 398.015625 96.535156 L 389.609375 101.367188 L 389.535156 80.183594 L 397.941406 75.351562 C 399.949219 74.164062 401.734375 73.644531 403.222656 73.570312 C 404.78125 73.570312 405.972656 74.164062 406.863281 75.203125 Z M 402.179688 88.285156 C 403.296875 86.425781 403.816406 84.570312 403.816406 82.5625 C 403.816406 80.554688 403.296875 79.292969 402.179688 78.695312 C 401.0625 78.101562 399.578125 78.398438 397.792969 79.441406 L 393.851562 81.671875 L 393.925781 94.824219 L 397.867188 92.597656 C 399.578125 91.554688 401.0625 90.070312 402.179688 88.285156 " fill-opacity="1" fill-rule="nonzero"/><path fill="#b2b0af" d="M 436.019531 64.945312 L 438.324219 66.285156 C 438.546875 66.433594 438.695312 66.730469 438.695312 67.175781 C 438.695312 67.921875 438.398438 68.589844 437.878906 69.332031 L 435.574219 67.996094 C 436.167969 67.25 436.464844 66.507812 436.390625 65.839844 C 436.390625 65.394531 436.242188 65.097656 436.019531 64.945312 Z M 436.019531 64.945312 " fill-opacity="1" fill-rule="nonzero"/><path fill="#b2b0af" d="M 431.855469 72.75 L 429.546875 71.414062 C 430.664062 71.191406 431.707031 70.746094 432.820312 70.148438 C 434.011719 69.480469 434.902344 68.738281 435.5 67.996094 L 437.804688 69.332031 C 437.207031 70.074219 436.316406 70.820312 435.125 71.488281 C 434.011719 72.15625 432.96875 72.527344 431.855469 72.75 Z M 431.855469 72.75 " fill-opacity="1" fill-rule="nonzero"/><path fill="#b2b0af" d="M 429.027344 72.824219 L 426.722656 71.488281 C 427.539062 71.710938 428.433594 71.710938 429.546875 71.488281 L 431.855469 72.824219 C 430.738281 73.046875 429.847656 73.046875 429.027344 72.824219 Z M 429.027344 72.824219 " fill-opacity="1" fill-rule="nonzero"/><path fill="#b2b0af" d="M 427.613281 77.359375 L 425.308594 76.019531 L 426.722656 71.488281 L 429.027344 72.824219 Z M 427.613281 77.359375 " fill-opacity="1" fill-rule="nonzero"/><path fill="#b2b0af" d="M 439.515625 60.117188 L 441.820312 61.453125 C 441.226562 61.082031 440.480469 60.933594 439.664062 61.082031 C 438.769531 61.230469 437.582031 61.453125 436.242188 61.898438 C 434.902344 62.347656 433.863281 62.570312 433.191406 62.570312 L 430.886719 61.230469 C 431.554688 61.230469 432.523438 61.007812 433.9375 60.5625 C 435.347656 60.117188 436.464844 59.894531 437.359375 59.746094 C 438.175781 59.597656 438.917969 59.746094 439.515625 60.117188 Z M 439.515625 60.117188 " fill-opacity="1" fill-rule="nonzero"/><path fill="#b2b0af" d="M 439.140625 51.644531 L 436.835938 50.304688 C 437.953125 50.007812 438.917969 49.859375 439.8125 50.007812 L 442.117188 51.347656 C 441.226562 51.195312 440.257812 51.347656 439.140625 51.644531 Z M 439.140625 51.644531 " fill-opacity="1" fill-rule="nonzero"/><path fill="#b2b0af" d="M 432.597656 62.496094 L 430.292969 61.15625 C 430.441406 61.230469 430.664062 61.304688 430.886719 61.304688 L 433.191406 62.644531 C 432.96875 62.644531 432.746094 62.570312 432.597656 62.496094 Z M 432.597656 62.496094 " fill-opacity="1" fill-rule="nonzero"/><path fill="#b2b0af" d="M 429.175781 67.25 L 426.871094 65.914062 C 426.796875 65.839844 426.722656 65.765625 426.574219 65.765625 L 428.878906 67.101562 C 429.027344 67.175781 429.101562 67.175781 429.175781 67.25 Z M 429.175781 67.25 " fill-opacity="1" fill-rule="nonzero"/><path fill="#b2b0af" d="M 435.722656 53.128906 L 433.414062 51.792969 C 434.605469 51.121094 435.722656 50.601562 436.835938 50.304688 L 439.140625 51.644531 C 438.027344 52.015625 436.835938 52.535156 435.722656 53.128906 Z M 435.722656 53.128906 " fill-opacity="1" fill-rule="nonzero"/><path fill="#b2b0af" d="M 428.953125 67.101562 L 426.648438 65.765625 C 425.980469 65.320312 425.679688 64.351562 425.679688 62.941406 C 425.679688 61.75 425.980469 60.414062 426.574219 59.074219 L 428.878906 60.414062 C 428.285156 61.75 427.988281 63.015625 427.988281 64.277344 C 427.914062 65.691406 428.285156 66.65625 428.953125 67.101562 Z M 428.953125 67.101562 " fill-opacity="1" fill-rule="nonzero"/><path fill="#ffffff" d="M 435.722656 53.128906 C 436.910156 52.460938 438.027344 51.941406 439.140625 51.644531 C 440.257812 51.347656 441.226562 51.195312 442.117188 51.347656 L 440.777344 55.878906 C 439.066406 55.730469 437.359375 56.175781 435.648438 57.144531 C 434.457031 57.8125 433.566406 58.554688 432.96875 59.296875 C 432.375 60.042969 432.152344 60.785156 432.152344 61.527344 C 432.152344 62.269531 432.449219 62.570312 433.117188 62.570312 C 433.789062 62.570312 434.753906 62.347656 436.167969 61.898438 C 437.582031 61.453125 438.695312 61.230469 439.589844 61.082031 C 440.480469 60.933594 441.226562 61.082031 441.894531 61.527344 C 442.488281 61.972656 442.859375 62.941406 442.859375 64.351562 C 442.859375 65.542969 442.5625 66.804688 442.042969 68.144531 C 441.449219 69.480469 440.554688 70.820312 439.367188 72.082031 C 438.175781 73.347656 436.761719 74.460938 435.050781 75.425781 C 433.566406 76.246094 432.226562 76.839844 430.8125 77.210938 C 429.472656 77.507812 428.359375 77.582031 427.539062 77.359375 L 428.953125 72.824219 C 429.773438 73.046875 430.664062 73.046875 431.78125 72.824219 C 432.894531 72.601562 433.9375 72.15625 435.050781 71.5625 C 436.242188 70.894531 437.132812 70.148438 437.730469 69.40625 C 438.324219 68.664062 438.621094 67.921875 438.546875 67.25 C 438.546875 66.804688 438.398438 66.433594 438.027344 66.285156 C 437.65625 66.136719 437.207031 66.136719 436.6875 66.210938 C 436.167969 66.285156 435.421875 66.507812 434.53125 66.804688 C 433.117188 67.25 432.003906 67.546875 431.109375 67.695312 C 430.21875 67.847656 429.472656 67.621094 428.804688 67.175781 C 428.136719 66.730469 427.835938 65.765625 427.835938 64.351562 C 427.835938 63.164062 428.136719 61.824219 428.730469 60.488281 C 429.324219 59.148438 430.144531 57.8125 431.332031 56.621094 C 432.597656 55.285156 434.011719 54.171875 435.722656 53.128906 Z M 435.722656 53.128906 " fill-opacity="1" fill-rule="nonzero"/><path fill="#b2b0af" d="M 428.804688 60.414062 L 426.5 59.074219 C 427.09375 57.738281 427.914062 56.398438 429.101562 55.210938 C 430.292969 53.945312 431.707031 52.832031 433.414062 51.867188 L 435.722656 53.203125 C 434.011719 54.171875 432.597656 55.285156 431.40625 56.546875 C 430.292969 57.8125 429.398438 59.074219 428.804688 60.414062 Z M 428.804688 60.414062 " fill-opacity="1" fill-rule="nonzero"/><path fill="#b2b0af" d="M 415.640625 82.414062 L 413.335938 81.074219 L 423.375 75.277344 L 425.679688 76.617188 Z M 415.640625 82.414062 " fill-opacity="1" fill-rule="nonzero"/><path fill="#b2b0af" d="M 415.566406 73.644531 L 413.261719 72.304688 L 421.8125 67.398438 L 424.121094 68.738281 Z M 415.566406 73.644531 " fill-opacity="1" fill-rule="nonzero"/><path fill="#b2b0af" d="M 411.402344 88.804688 L 409.097656 87.46875 L 409.023438 66.285156 L 411.328125 67.621094 Z M 411.402344 88.804688 " fill-opacity="1" fill-rule="nonzero"/><path fill="#b2b0af" d="M 411.328125 67.621094 L 409.023438 66.285156 L 423.003906 58.257812 L 425.308594 59.597656 Z M 411.328125 67.621094 " fill-opacity="1" fill-rule="nonzero"/><path fill="#ffffff" d="M 425.308594 59.597656 L 425.308594 63.535156 L 415.640625 69.109375 L 415.640625 73.71875 L 424.195312 68.8125 L 424.195312 72.601562 L 415.640625 77.507812 L 415.640625 82.414062 L 425.679688 76.617188 L 425.679688 80.554688 L 411.402344 88.804688 L 411.328125 67.621094 Z M 425.308594 59.597656 " fill-opacity="1" fill-rule="nonzero"/><path fill="#b2b0af" d="M 445.910156 68.886719 L 443.605469 67.546875 L 443.53125 46.367188 L 445.835938 47.703125 Z M 445.910156 68.886719 " fill-opacity="1" fill-rule="nonzero"/><path fill="#b2b0af" d="M 445.835938 47.703125 L 443.53125 46.367188 L 447.769531 43.914062 L 450.074219 45.25 Z M 445.835938 47.703125 " fill-opacity="1" fill-rule="nonzero"/><path fill="#ffffff" d="M 450.074219 45.25 L 450.148438 66.433594 L 445.910156 68.886719 L 445.835938 47.703125 Z M 450.074219 45.25 " fill-opacity="1" fill-rule="nonzero"/><path fill="#b2b0af" d="M 466.957031 51.941406 L 464.652344 50.601562 L 464.652344 44.433594 L 466.957031 45.773438 Z M 466.957031 51.941406 " fill-opacity="1" fill-rule="nonzero"/><path fill="#b2b0af" d="M 466.957031 45.773438 L 464.652344 44.433594 L 468.519531 42.203125 L 470.824219 43.542969 Z M 466.957031 45.773438 " fill-opacity="1" fill-rule="nonzero"/><path fill="#b2b0af" d="M 465.992188 39.453125 L 468.296875 40.792969 C 468.371094 40.792969 468.371094 40.867188 468.445312 40.867188 L 466.140625 39.527344 C 466.066406 39.527344 466.066406 39.453125 465.992188 39.453125 Z M 465.992188 39.453125 " fill-opacity="1" fill-rule="nonzero"/><path fill="#b2b0af" d="M 459.296875 55.359375 L 456.992188 54.019531 C 457.363281 54.246094 457.734375 54.320312 458.179688 54.394531 C 459.074219 54.46875 460.117188 54.097656 461.304688 53.425781 C 462.496094 52.757812 463.609375 51.792969 464.652344 50.601562 L 466.957031 51.941406 C 465.992188 53.128906 464.875 54.097656 463.609375 54.765625 C 462.421875 55.433594 461.378906 55.730469 460.488281 55.730469 C 460.117188 55.730469 459.667969 55.582031 459.296875 55.359375 Z M 459.296875 55.359375 " fill-opacity="1" fill-rule="nonzero"/><path fill="#b2b0af" d="M 468.519531 34.773438 L 470.824219 36.109375 C 470.007812 35.664062 469.039062 35.441406 467.925781 35.589844 C 466.585938 35.738281 465.097656 36.257812 463.535156 37.148438 L 461.230469 35.8125 C 462.867188 34.847656 464.28125 34.324219 465.617188 34.25 C 466.660156 34.101562 467.703125 34.324219 468.519531 34.773438 Z M 468.519531 34.773438 " fill-opacity="1" fill-rule="nonzero"/><path fill="#b2b0af" d="M 458.257812 41.609375 L 455.949219 40.273438 C 457.511719 38.414062 459.222656 37 461.15625 35.886719 L 463.460938 37.222656 C 461.527344 38.265625 459.816406 39.75 458.257812 41.609375 Z M 458.257812 41.609375 " fill-opacity="1" fill-rule="nonzero"/><path fill="#b2b0af" d="M 455.949219 60.042969 L 453.644531 58.703125 C 453.125 58.40625 452.679688 58.035156 452.304688 57.515625 C 451.414062 56.324219 450.96875 54.691406 450.96875 52.609375 C 450.96875 50.527344 451.414062 48.371094 452.230469 46.21875 C 453.125 44.0625 454.3125 42.054688 455.800781 40.195312 L 458.105469 41.535156 C 456.546875 43.394531 455.355469 45.324219 454.539062 47.554688 C 453.71875 49.710938 453.273438 51.867188 453.273438 53.945312 C 453.273438 56.027344 453.71875 57.664062 454.613281 58.851562 C 455.058594 59.371094 455.503906 59.820312 455.949219 60.042969 Z M 455.949219 60.042969 " fill-opacity="1" fill-rule="nonzero"/><path fill="#ffffff" d="M 463.460938 37.148438 C 465.097656 36.183594 466.511719 35.664062 467.851562 35.589844 C 469.1875 35.441406 470.304688 35.738281 471.195312 36.40625 L 468.445312 40.867188 C 467.105469 40.046875 465.542969 40.121094 463.683594 41.238281 C 462.496094 41.90625 461.453125 42.796875 460.5625 43.914062 C 459.667969 44.953125 458.925781 46.21875 458.40625 47.554688 C 457.882812 48.894531 457.660156 50.230469 457.660156 51.570312 C 457.660156 52.832031 457.957031 53.871094 458.480469 54.617188 C 459 55.359375 459.667969 55.730469 460.5625 55.804688 C 461.453125 55.878906 462.496094 55.507812 463.683594 54.839844 C 464.875 54.171875 465.992188 53.203125 467.03125 52.015625 L 467.03125 45.847656 L 470.898438 43.617188 L 470.898438 52.238281 C 469.933594 53.648438 468.742188 54.988281 467.402344 56.25 C 466.066406 57.515625 464.800781 58.480469 463.460938 59.222656 C 461.527344 60.339844 459.816406 60.859375 458.332031 60.785156 C 456.769531 60.785156 455.578125 60.117188 454.6875 59 C 453.792969 57.8125 453.347656 56.175781 453.347656 54.097656 C 453.347656 52.015625 453.792969 49.859375 454.613281 47.703125 C 455.503906 45.546875 456.695312 43.542969 458.179688 41.683594 C 459.816406 39.75 461.527344 38.265625 463.460938 37.148438 Z M 463.460938 37.148438 " fill-opacity="1" fill-rule="nonzero"/><path fill="#b2b0af" d="M 487.558594 36.554688 L 485.253906 35.21875 L 485.253906 22.359375 L 487.558594 23.695312 Z M 487.558594 36.554688 " fill-opacity="1" fill-rule="nonzero"/><path fill="#b2b0af" d="M 487.484375 23.695312 L 485.179688 22.359375 L 489.417969 19.90625 L 491.722656 21.246094 Z M 487.484375 23.695312 " fill-opacity="1" fill-rule="nonzero"/><path fill="#b2b0af" d="M 488.226562 44.433594 L 485.921875 43.097656 L 476.699219 35.515625 L 479.003906 36.851562 Z M 488.226562 44.433594 " fill-opacity="1" fill-rule="nonzero"/><path fill="#b2b0af" d="M 474.765625 30.980469 L 472.460938 29.644531 L 475.957031 27.636719 L 478.261719 28.972656 Z M 474.765625 30.980469 " fill-opacity="1" fill-rule="nonzero"/><path fill="#b2b0af" d="M 474.839844 52.164062 L 472.535156 50.824219 L 472.460938 29.644531 L 474.765625 30.980469 Z M 474.839844 52.164062 " fill-opacity="1" fill-rule="nonzero"/><path fill="#ffffff" d="M 491.722656 21.246094 L 491.796875 42.425781 L 488.300781 44.433594 L 479.003906 36.851562 L 479.003906 49.710938 L 474.765625 52.164062 L 474.691406 30.980469 L 478.1875 28.972656 L 487.410156 36.554688 L 487.410156 23.695312 Z M 491.722656 21.246094 " fill-opacity="1" fill-rule="nonzero"/></svg>