<svg width="21" height="20" viewBox="0 0 21 20" fill="none" xmlns="http://www.w3.org/2000/svg">
<g clip-path="url(#clip0_109_48)">
<path fill-rule="evenodd" clip-rule="evenodd" d="M17.6336 13.3073C17.6336 13.7416 17.4369 14.1717 17.0548 14.5729C16.6727 14.9742 16.1125 15.3388 15.4064 15.6459C14.7003 15.953 13.862 16.1966 12.9395 16.3628C12.0169 16.529 11.0281 16.6146 10.0295 16.6146C9.03087 16.6146 8.04205 16.529 7.11947 16.3628C6.19689 16.1966 5.35861 15.953 4.6525 15.6459C3.94639 15.3388 3.38627 14.9742 3.00413 14.5729C2.62198 14.1717 2.42529 13.7416 2.42529 13.3073C2.42529 12.873 2.62198 12.4429 3.00413 12.0416C3.38627 11.6404 3.94639 11.2758 4.6525 10.9687C5.35861 10.6616 6.19689 10.418 7.11947 10.2518C8.04205 10.0855 9.03087 10 10.0295 10C11.0281 10 12.0169 10.0855 12.9395 10.2518C13.862 10.418 14.7003 10.6616 15.4064 10.9687C16.1125 11.2758 16.6727 11.6404 17.0548 12.0416C17.4369 12.4429 17.6336 12.873 17.6336 13.3073Z" fill="url(#paint0_radial_109_48)"/>
<path fill-rule="evenodd" clip-rule="evenodd" d="M4.71664 5.19485C4.71664 5.19485 5.91435 7.6647 8.71633 7.59502C14.5882 7.44771 15.6179 4.38463 15.7652 3.94268C15.9125 3.50074 16.1379 3.56768 16.19 3.97613C18.1051 21.3592 2.89963 13.9008 2.35962 10.9401C5.37955 10.0562 4.64298 8.3621 4.64298 8.3621L4.71664 5.19485Z" fill="url(#paint1_radial_109_48)" stroke="#2E3436" stroke-width="0.540567" stroke-miterlimit="10"/>
<path fill-rule="evenodd" clip-rule="evenodd" d="M6.95142 12.5275C9.75929 13.0891 11.1892 12.5684 12.0261 11.9222C11.8051 11.6368 11.4276 11.3237 11.4276 11.3237C11.4276 11.3237 12.4082 11.5962 12.7534 12.0419C13.0977 12.4863 12.8813 12.7601 12.7912 13.3287C12.5906 12.8293 12.2162 12.642 12.1655 12.4436C11.4129 13.484 9.5378 13.4407 6.95142 12.5275Z" fill="url(#paint2_linear_109_48)"/>
<path opacity="0.185393" fill-rule="evenodd" clip-rule="evenodd" d="M15.7976 4.93506C15.5635 5.32126 15.2116 5.78221 14.6778 6.22412C13.5812 7.13206 11.7401 7.95843 8.7273 8.03402C6.96714 8.07779 5.83032 7.22812 5.13355 6.47152L5.08146 8.3335C5.13817 8.508 5.25457 8.91287 5.05542 9.46631C4.84112 10.0618 4.15771 10.671 2.98511 11.133C3.08941 11.3505 3.19156 11.5678 3.50594 11.8752C3.93425 12.2939 4.5297 12.7452 5.23771 13.1512C6.65373 13.9632 8.48837 14.6067 10.1986 14.6356C11.9089 14.6645 13.4725 14.1212 14.5476 12.5522C15.5388 11.1059 16.082 8.65727 15.7976 4.93506Z" stroke="url(#paint3_linear_109_48)" stroke-width="0.540567" stroke-miterlimit="10"/>
<path fill-rule="evenodd" clip-rule="evenodd" d="M7.77348 8.91475C7.77353 9.13726 7.72975 9.3576 7.64464 9.56319C7.55953 9.76878 7.43475 9.95558 7.27743 10.1129C7.12012 10.2703 6.93334 10.3951 6.72777 10.4803C6.5222 10.5655 6.30188 10.6093 6.07937 10.6093C5.85686 10.6093 5.63653 10.5655 5.43096 10.4803C5.2254 10.3951 5.03862 10.2703 4.8813 10.1129C4.72398 9.95558 4.5992 9.76878 4.51409 9.56319C4.42898 9.3576 4.3852 9.13726 4.38525 8.91475C4.3852 8.69224 4.42898 8.4719 4.51409 8.26631C4.5992 8.06072 4.72398 7.87392 4.8813 7.71656C5.03862 7.5592 5.2254 7.43438 5.43096 7.34921C5.63653 7.26405 5.85686 7.22021 6.07937 7.22021C6.30188 7.22021 6.5222 7.26405 6.72777 7.34921C6.93334 7.43438 7.12012 7.5592 7.27743 7.71656C7.43475 7.87392 7.55953 8.06072 7.64464 8.26631C7.72975 8.4719 7.77353 8.69224 7.77348 8.91475Z" fill="url(#paint4_radial_109_48)" stroke="#888A85" stroke-width="0.540567" stroke-miterlimit="10"/>
<path fill-rule="evenodd" clip-rule="evenodd" d="M4.39862 9.55298C4.79293 10.0995 5.0169 10.735 5.02126 11.3195C5.02563 11.9039 4.81002 12.3896 4.42188 12.6696C4.03373 12.9497 3.50485 13.0011 2.95156 12.8126C2.39828 12.6241 1.86593 12.2112 1.47162 11.6646C1.07731 11.118 0.853335 10.4826 0.848973 9.89813C0.844611 9.31364 1.06022 8.82797 1.44836 8.54795C1.83651 8.26793 2.36539 8.2165 2.91867 8.40498C3.47195 8.59346 4.0043 9.00641 4.39862 9.55298Z" fill="url(#paint5_radial_109_48)" stroke="black" stroke-width="0.540567" stroke-miterlimit="10"/>
<path fill-rule="evenodd" clip-rule="evenodd" d="M7.29103 9.16578C7.29107 9.27291 7.26999 9.37901 7.22901 9.478C7.18803 9.57699 7.12796 9.66694 7.05221 9.74271C6.97646 9.81848 6.88653 9.87858 6.78755 9.91959C6.68858 9.96059 6.58249 9.9817 6.47535 9.9817C6.36821 9.9817 6.26213 9.96059 6.16315 9.91959C6.06417 9.87858 5.97424 9.81848 5.89849 9.74271C5.82274 9.66694 5.76267 9.57699 5.72169 9.478C5.68071 9.37901 5.65964 9.27291 5.65967 9.16578C5.65964 9.05864 5.68071 8.95255 5.72169 8.85355C5.76267 8.75456 5.82274 8.66462 5.89849 8.58885C5.97424 8.51308 6.06417 8.45297 6.16315 8.41197C6.26213 8.37096 6.36821 8.34985 6.47535 8.34985C6.58249 8.34985 6.68858 8.37096 6.78755 8.41197C6.88653 8.45297 6.97646 8.51308 7.05221 8.58885C7.12796 8.66462 7.18803 8.75456 7.22901 8.85355C7.26999 8.95255 7.29107 9.05864 7.29103 9.16578Z" fill="#2E3436" stroke="black" stroke-width="0.540567" stroke-miterlimit="10"/>
<path opacity="0.280899" fill-rule="evenodd" clip-rule="evenodd" d="M1.59599 8.92014C1.32978 9.11953 1.18948 9.45689 1.20212 9.91468C1.21476 10.3725 1.39542 10.933 1.76624 11.4281C2.13705 11.9232 2.62412 12.2542 3.05988 12.3951C3.49564 12.5359 3.85884 12.4962 4.12505 12.2968C4.39126 12.0974 4.53207 11.7439 4.52154 11.284C4.51101 10.8241 4.33523 10.2751 3.96523 9.78105C3.59522 9.28704 3.11777 8.96395 2.67939 8.82449C2.241 8.68504 1.8622 8.72075 1.59599 8.92014Z" stroke="url(#paint6_linear_109_48)" stroke-width="0.540567" stroke-miterlimit="10"/>
<path fill-rule="evenodd" clip-rule="evenodd" d="M2.82446 9.68805C2.82448 9.80414 2.80545 9.9191 2.76844 10.0264C2.73143 10.1336 2.67718 10.2311 2.60878 10.3132C2.54038 10.3953 2.45918 10.4604 2.3698 10.5048C2.28043 10.5493 2.18463 10.5721 2.08789 10.5721C1.99115 10.5721 1.89535 10.5493 1.80597 10.5048C1.7166 10.4604 1.63539 10.3953 1.56699 10.3132C1.49859 10.2311 1.44434 10.1336 1.40734 10.0264C1.37033 9.9191 1.3513 9.80414 1.35132 9.68805C1.3513 9.57196 1.37033 9.457 1.40734 9.34974C1.44434 9.24247 1.49859 9.14501 1.56699 9.06291C1.63539 8.98081 1.7166 8.91569 1.80597 8.87126C1.89535 8.82682 1.99115 8.80396 2.08789 8.80396C2.18463 8.80396 2.28043 8.82682 2.3698 8.87126C2.45918 8.91569 2.54038 8.98081 2.60878 9.06291C2.67718 9.14501 2.73143 9.24247 2.76844 9.34974C2.80545 9.457 2.82448 9.57196 2.82446 9.68805Z" fill="white"/>
<path fill-rule="evenodd" clip-rule="evenodd" d="M6.72633 8.78907C6.72633 8.93884 6.66683 9.08247 6.56093 9.18837C6.45503 9.29428 6.3114 9.35377 6.16163 9.35377C6.01186 9.35377 5.86822 9.29428 5.76232 9.18837C5.65642 9.08247 5.59692 8.93884 5.59692 8.78907C5.59692 8.6393 5.65642 8.49567 5.76232 8.38976C5.86822 8.28386 6.01186 8.22437 6.16163 8.22437C6.3114 8.22437 6.45503 8.28386 6.56093 8.38976C6.66683 8.49567 6.72633 8.6393 6.72633 8.78907Z" fill="white"/>
<path fill-rule="evenodd" clip-rule="evenodd" d="M11.5666 9.09861C11.5667 9.35982 11.5153 9.61848 11.4153 9.85982C11.3154 10.1012 11.169 10.3205 10.9843 10.5052C10.7996 10.6899 10.5803 10.8364 10.339 10.9364C10.0977 11.0364 9.83906 11.0878 9.57785 11.0878C9.31664 11.0878 9.058 11.0364 8.81668 10.9364C8.57536 10.8364 8.3561 10.6899 8.17142 10.5052C7.98675 10.3205 7.84027 10.1012 7.74035 9.85982C7.64044 9.61848 7.58905 9.35982 7.58911 9.09861C7.58905 8.83741 7.64044 8.57874 7.74035 8.3374C7.84027 8.09606 7.98675 7.87676 8.17142 7.69204C8.3561 7.50731 8.57536 7.36078 8.81668 7.26081C9.058 7.16083 9.31664 7.10938 9.57785 7.10938C9.83906 7.10938 10.0977 7.16083 10.339 7.26081C10.5803 7.36078 10.7996 7.50731 10.9843 7.69204C11.169 7.87676 11.3154 8.09606 11.4153 8.3374C11.5153 8.57874 11.5667 8.83741 11.5666 9.09861Z" fill="url(#paint7_radial_109_48)" stroke="#888A85" stroke-width="0.540567" stroke-miterlimit="10"/>
<path fill-rule="evenodd" clip-rule="evenodd" d="M11.0005 9.39337C11.0006 9.51914 10.9758 9.64368 10.9277 9.75989C10.8796 9.8761 10.8091 9.98169 10.7202 10.0706C10.6313 10.1596 10.5257 10.2301 10.4095 10.2783C10.2933 10.3264 10.1688 10.3512 10.043 10.3512C9.91722 10.3512 9.79268 10.3264 9.67649 10.2783C9.5603 10.2301 9.45473 10.1596 9.36581 10.0706C9.27689 9.98169 9.20636 9.8761 9.15826 9.75989C9.11015 9.64368 9.08541 9.51914 9.08545 9.39337C9.08541 9.2676 9.11015 9.14305 9.15826 9.02685C9.20636 8.91064 9.27689 8.80505 9.36581 8.7161C9.45473 8.62716 9.5603 8.5566 9.67649 8.50846C9.79268 8.46032 9.91722 8.43555 10.043 8.43555C10.1688 8.43555 10.2933 8.46032 10.4095 8.50846C10.5257 8.5566 10.6313 8.62716 10.7202 8.7161C10.8091 8.80505 10.8796 8.91064 10.9277 9.02685C10.9758 9.14305 11.0006 9.2676 11.0005 9.39337Z" fill="#2E3436" stroke="black" stroke-width="0.540567" stroke-miterlimit="10"/>
<path fill-rule="evenodd" clip-rule="evenodd" d="M10.3378 8.95124C10.3378 9.12706 10.2679 9.29567 10.1436 9.41999C10.0193 9.54431 9.85069 9.61416 9.67488 9.61416C9.49906 9.61416 9.33045 9.54431 9.20613 9.41999C9.08181 9.29567 9.01196 9.12706 9.01196 8.95124C9.01196 8.77543 9.08181 8.60681 9.20613 8.48249C9.33045 8.35817 9.49906 8.28833 9.67488 8.28833C9.85069 8.28833 10.0193 8.35817 10.1436 8.48249C10.2679 8.60681 10.3378 8.77543 10.3378 8.95124Z" fill="white"/>
<path d="M15.6386 15.0383L16.0246 14.2696C14.5886 13.219 11.9415 12.4546 11.9415 12.4546C11.4827 12.2409 11.3379 12.6531 11.6556 12.921C11.6556 12.921 13.9194 14.544 15.6386 15.0383Z" fill="url(#paint8_linear_109_48)" stroke="#673907" stroke-width="0.540568" stroke-linecap="round"/>
<path d="M17.4793 15.7468L17.6859 15.2894L16.0828 14.2623L15.955 14.2514L15.8997 14.0745C15.6668 14.2203 15.3284 14.7621 15.4181 15.0667L15.5913 15.0012L15.6851 15.0918L17.4793 15.7468Z" fill="url(#paint9_linear_109_48)" stroke="#888A85" stroke-width="0.540568" stroke-linecap="round"/>
<path d="M16.4405 14.8791L17.5049 15.3361" stroke="white" stroke-width="0.540568" stroke-linecap="round" stroke-linejoin="round"/>
<path d="M19.8093 17.6894C19.3095 15.9928 19.1323 14.6458 17.8261 14.7656C16.7736 14.8622 16.6999 16.3704 17.7875 16.7865C18.8353 17.1874 19.8093 17.6894 19.8093 17.6894Z" fill="url(#paint10_radial_109_48)"/>
<path opacity="0.527778" d="M17.9045 14.9032C17.9597 14.8869 18.0175 14.8817 18.0748 14.8878C18.132 14.8939 18.1875 14.9112 18.238 14.9387C18.2885 14.9662 18.3332 15.0034 18.3693 15.0482C18.4055 15.093 18.4325 15.1445 18.4487 15.1997C18.465 15.2549 18.4702 15.3127 18.4641 15.37C18.458 15.4272 18.4407 15.4827 18.4131 15.5332C18.3856 15.5837 18.3484 15.6283 18.3036 15.6645C18.2588 15.7006 18.2073 15.7276 18.1521 15.7438C18.0969 15.7601 18.039 15.7653 17.9818 15.7593C17.9246 15.7532 17.8691 15.7359 17.8186 15.7083C17.768 15.6808 17.7234 15.6436 17.6873 15.5988C17.6511 15.554 17.6241 15.5026 17.6079 15.4474C17.5916 15.3922 17.5864 15.3343 17.5925 15.2771C17.5986 15.2198 17.6159 15.1644 17.6435 15.1139C17.671 15.0633 17.7082 15.0187 17.753 14.9826C17.7978 14.9464 17.8493 14.9195 17.9045 14.9032Z" fill="white"/>
<path d="M15.9938 14.2797C16.031 14.2687 16.0701 14.2651 16.1087 14.2692C16.1473 14.2733 16.1847 14.285 16.2188 14.3036C16.2529 14.3222 16.283 14.3473 16.3074 14.3775C16.3318 14.4077 16.35 14.4424 16.361 14.4797C16.372 14.5169 16.3755 14.556 16.3714 14.5946C16.3673 14.6332 16.3556 14.6706 16.337 14.7047C16.3184 14.7388 16.2933 14.7689 16.2631 14.7933C16.2329 14.8177 16.1981 14.8359 16.1609 14.8468C16.1236 14.8578 16.0846 14.8614 16.046 14.8573C16.0074 14.8532 15.9699 14.8415 15.9358 14.8229C15.9017 14.8043 15.8716 14.7792 15.8472 14.749C15.8228 14.7188 15.8046 14.6841 15.7937 14.6468C15.7827 14.6096 15.7791 14.5705 15.7833 14.5319C15.7874 14.4933 15.7991 14.4559 15.8177 14.4218C15.8362 14.3877 15.8614 14.3576 15.8916 14.3332C15.9218 14.3088 15.9565 14.2906 15.9938 14.2797Z" fill="white"/>
<path opacity="0.427778" d="M19.1818 16.6742C19.1818 16.6742 19.019 16.0652 18.6597 15.7482C18.5326 15.6361 18.6928 15.4709 18.8127 15.616C19.0718 15.9293 19.1818 16.6742 19.1818 16.6742Z" fill="url(#paint11_linear_109_48)"/>
<path fill-rule="evenodd" clip-rule="evenodd" d="M9.97852 13.2236C10.6024 13.2832 11.1659 13.1101 11.4001 13.026C11.4411 12.7946 11.6237 12.3505 12.2527 12.3213L12.0317 11.9346C12.0317 11.9346 11.2123 12.4962 10.3376 12.6619L9.97852 13.2236Z" fill="url(#paint12_linear_109_48)"/>
</g>
<defs>
<radialGradient id="paint0_radial_109_48" cx="0" cy="0" r="1" gradientUnits="userSpaceOnUse" gradientTransform="translate(10.0295 13.3073) scale(7.60417 3.3073)">
<stop/>
<stop offset="1" stop-opacity="0"/>
</radialGradient>
<radialGradient id="paint1_radial_109_48" cx="0" cy="0" r="1" gradientUnits="userSpaceOnUse" gradientTransform="translate(7.293 9.29158) scale(14.2036 10.3892)">
<stop stop-color="#857C63"/>
<stop offset="1" stop-color="#221F19"/>
</radialGradient>
<linearGradient id="paint2_linear_109_48" x1="12.2747" y1="11.8455" x2="7.63428" y2="12.7663" gradientUnits="userSpaceOnUse">
<stop/>
<stop offset="1" stop-opacity="0"/>
</linearGradient>
<linearGradient id="paint3_linear_109_48" x1="6.63094" y1="7.96295" x2="16.8625" y2="19.5775" gradientUnits="userSpaceOnUse">
<stop stop-color="white"/>
<stop offset="1" stop-color="white" stop-opacity="0"/>
</linearGradient>
<radialGradient id="paint4_radial_109_48" cx="0" cy="0" r="1" gradientUnits="userSpaceOnUse" gradientTransform="translate(6.07936 7.7226) scale(2.46766 2.46765)">
<stop stop-color="white"/>
<stop offset="1" stop-color="#B9B9B0"/>
</radialGradient>
<radialGradient id="paint5_radial_109_48" cx="0" cy="0" r="1" gradientUnits="userSpaceOnUse" gradientTransform="translate(2.25803 9.72337) rotate(-30) scale(1.85368 2.16355)">
<stop stop-color="#5B676B"/>
<stop offset="1" stop-color="#141718"/>
</radialGradient>
<linearGradient id="paint6_linear_109_48" x1="1.96778" y1="9.26959" x2="3.911" y2="12.0868" gradientUnits="userSpaceOnUse">
<stop stop-color="white"/>
<stop offset="1" stop-color="white" stop-opacity="0"/>
</linearGradient>
<radialGradient id="paint7_radial_109_48" cx="0" cy="0" r="1" gradientUnits="userSpaceOnUse" gradientTransform="translate(9.57785 7.69913) scale(2.89682 2.89681)">
<stop stop-color="white"/>
<stop offset="1" stop-color="#B9B9B0"/>
</radialGradient>
<linearGradient id="paint8_linear_109_48" x1="14.7104" y1="13.3562" x2="13.8448" y2="15.2466" gradientUnits="userSpaceOnUse">
<stop stop-color="#6E3D09"/>
<stop offset="0.242424" stop-color="#EA8113"/>
<stop offset="0.621212" stop-color="#5C3307"/>
<stop offset="1" stop-color="#E07C12"/>
</linearGradient>
<linearGradient id="paint9_linear_109_48" x1="16.565" y1="15.4093" x2="16.9457" y2="14.6414" gradientUnits="userSpaceOnUse">
<stop stop-color="#BDBDBD"/>
<stop offset="0.333333" stop-color="#E2E2E2"/>
<stop offset="0.666667" stop-color="#A3A3A3"/>
<stop offset="1" stop-color="#DDDDDD"/>
</linearGradient>
<radialGradient id="paint10_radial_109_48" cx="0" cy="0" r="1" gradientUnits="userSpaceOnUse" gradientTransform="translate(17.5144 15.8555) rotate(-106.415) scale(2.01855 1.96714)">
<stop stop-color="#696969"/>
<stop offset="1"/>
</radialGradient>
<linearGradient id="paint11_linear_109_48" x1="18.7093" y1="15.4524" x2="19.1968" y2="16.3559" gradientUnits="userSpaceOnUse">
<stop stop-color="white"/>
<stop offset="1" stop-color="white" stop-opacity="0"/>
</linearGradient>
<linearGradient id="paint12_linear_109_48" x1="11.2951" y1="12.7264" x2="10.5309" y2="12.9105" gradientUnits="userSpaceOnUse">
<stop/>
<stop offset="1" stop-opacity="0"/>
</linearGradient>
<clipPath id="clip0_109_48">
<rect width="20" height="20" fill="white" transform="translate(0.394043)"/>
</clipPath>
</defs>
</svg>
