<svg width="21" height="20" viewBox="0 0 21 20" fill="none" xmlns="http://www.w3.org/2000/svg">
<g clip-path="url(#clip0_109_12)">
<g opacity="0.783251">
<g filter="url(#filter0_f_109_12)">
<path d="M9.40202 1.86705L3.00354 8.42085C0.580806 10.8436 4.5721 10.6417 6.01642 11.558C6.68422 11.9928 3.87323 12.5519 4.44785 13.1265C5.00695 13.7012 7.81793 14.2292 8.37702 14.7883C8.93612 15.3629 7.24331 15.9686 7.8024 16.5432C8.34596 17.1178 9.65051 16.5743 9.88346 17.8788C10.0543 18.8417 12.2751 18.3603 13.2691 17.5371C13.8903 17.0091 12.1975 17.0091 12.7566 16.4345C14.1543 15.0212 15.3967 15.7977 15.9092 14.4932C16.1888 13.7943 13.7971 13.2974 14.4338 12.847C15.9558 11.7754 21.5467 11.2318 18.9687 8.6538L12.3373 1.86705C11.5141 1.09054 10.163 1.09054 9.40202 1.86705ZM16.7479 14.4932C16.7479 14.8193 19.2793 15.0057 19.1395 14.4155C18.9376 13.4216 17.0274 13.4993 16.7479 14.4932ZM5.95429 16.2171C6.52892 16.714 7.39861 16.1084 7.67816 15.4095C7.11907 14.6796 5.05354 15.4561 5.95429 16.2171ZM16.4373 15.1765C15.7229 15.8288 16.5615 16.5121 17.2604 16.0618C17.4467 15.9375 17.2448 15.3318 16.4373 15.1765Z" fill="black"/>
</g>
<g opacity="0.576355" filter="url(#filter1_f_109_12)">
<path d="M9.40202 2.01891L3.00354 8.5727C0.580806 10.9954 4.5721 10.7935 6.01642 11.7098C6.68422 12.1447 3.87323 12.7038 4.44785 13.2784C5.00695 13.853 7.81793 14.381 8.37702 14.9401C8.93612 15.5148 7.24331 16.1204 7.8024 16.6951C8.34596 17.2697 9.65051 16.7261 9.88346 18.0307C10.0543 18.9935 12.2751 18.5121 13.2691 17.689C13.8903 17.161 12.1975 17.161 12.7566 16.5863C14.1543 15.1731 15.3967 15.9496 15.9092 14.6451C16.1888 13.9462 13.7971 13.4492 14.4338 12.9988C15.9558 11.9273 21.5467 11.3837 18.9687 8.80566L12.3373 2.01891C11.5141 1.24239 10.163 1.24239 9.40202 2.01891ZM16.7479 14.6451C16.7479 14.9712 19.2793 15.1576 19.1395 14.5674C18.9376 13.5735 17.0274 13.6511 16.7479 14.6451ZM5.95429 16.3689C6.52892 16.8659 7.39861 16.2602 7.67816 15.5613C7.11907 14.8314 5.05354 15.6079 5.95429 16.3689ZM16.4373 15.3284C15.7229 15.9807 16.5615 16.664 17.2604 16.2136C17.4467 16.0894 17.2448 15.4837 16.4373 15.3284Z" fill="black"/>
</g>
</g>
<path d="M9.40202 1.71569L3.00354 8.26948C0.580806 10.6922 4.5721 10.4903 6.01642 11.4066C6.68422 11.8415 3.87323 12.4005 4.44785 12.9752C5.00695 13.5498 7.81793 14.0778 8.37702 14.6369C8.93612 15.2115 7.24331 15.8172 7.8024 16.3918C8.34596 16.9665 9.65051 16.4229 9.88346 17.7274C10.0543 18.6903 12.2751 18.2089 13.2691 17.3858C13.8903 16.8577 12.1975 16.8577 12.7566 16.2831C14.1543 14.8699 15.3967 15.6464 15.9092 14.3418C16.1888 13.643 13.7971 13.146 14.4338 12.6956C15.9558 11.624 21.5467 11.0805 18.9687 8.50244L12.3373 1.71569C11.5141 0.939172 10.163 0.939172 9.40202 1.71569ZM16.7479 14.3418C16.7479 14.668 19.2793 14.8543 19.1395 14.2642C18.9376 13.2702 17.0274 13.3479 16.7479 14.3418ZM5.95429 16.0657C6.52892 16.5627 7.39861 15.957 7.67816 15.2581C7.11907 14.5282 5.05354 15.3047 5.95429 16.0657ZM16.4373 15.0252C15.7229 15.6774 16.5615 16.3608 17.2604 15.9104C17.4467 15.7862 17.2448 15.1805 16.4373 15.0252Z" fill="black"/>
<mask id="mask0_109_12" style="mask-type:luminance" maskUnits="userSpaceOnUse" x="2" y="1" width="18" height="18">
<path d="M9.41679 1.79099L3.07883 8.28278C0.679024 10.6826 4.63256 10.4826 6.06321 11.3902C6.7247 11.821 3.9403 12.3748 4.50949 12.944C5.06329 13.5131 7.84769 14.0362 8.40149 14.59C8.95529 15.1592 7.2785 15.7591 7.8323 16.3283C8.37072 16.8975 9.66293 16.3591 9.89368 17.6513C10.0629 18.605 12.2627 18.1282 13.2473 17.3128C13.8626 16.7898 12.1858 16.7898 12.7396 16.2206C14.1241 14.8207 15.3548 15.5899 15.8624 14.2977C16.1393 13.6054 13.7703 13.1132 14.401 12.667C15.9086 11.6056 21.4466 11.0672 18.893 8.51353L12.3243 1.79099C11.5089 1.02182 10.1706 1.02182 9.41679 1.79099ZM7.89384 11.744C8.03229 11.744 12.6319 12.3594 10.8628 12.8363C10.186 13.0209 7.07852 11.744 7.89384 11.744ZM16.6931 14.2977C16.6931 14.6207 19.2006 14.8053 19.0622 14.2208C18.8622 13.2362 16.97 13.3132 16.6931 14.2977ZM6.00168 16.0052C6.57087 16.4975 7.43234 15.8976 7.70924 15.2053C7.15543 14.4823 5.10944 15.2515 6.00168 16.0052ZM16.3855 14.9746C15.6778 15.6207 16.5085 16.2975 17.2008 15.8514C17.3854 15.7283 17.1854 15.1284 16.3855 14.9746Z" fill="white"/>
</mask>
<g mask="url(#mask0_109_12)">
<path opacity="0.669951" d="M9.41679 1.79099L3.07883 8.28278C0.679024 10.6826 4.63256 10.4826 6.06321 11.3902C6.7247 11.821 3.9403 12.3748 4.50949 12.944C5.06329 13.5131 7.84769 14.0362 8.40149 14.59C8.95529 15.1592 7.2785 15.7591 7.8323 16.3283C8.37072 16.8975 9.66293 16.3591 9.89368 17.6513C10.0629 18.605 12.2627 18.1282 13.2473 17.3128C13.8626 16.7898 12.1858 16.7898 12.7396 16.2206C14.1241 14.8207 15.3548 15.5899 15.8624 14.2977C16.1393 13.6054 13.7703 13.1132 14.401 12.667C15.9086 11.6056 21.4466 11.0672 18.893 8.51353L12.3243 1.79099C11.5089 1.02182 10.1706 1.02182 9.41679 1.79099ZM7.89384 11.744C8.03229 11.744 12.6319 12.3594 10.8628 12.8363C10.186 13.0209 7.07852 11.744 7.89384 11.744ZM16.6931 14.2977C16.6931 14.6207 19.2006 14.8053 19.0622 14.2208C18.8622 13.2362 16.97 13.3132 16.6931 14.2977ZM6.00168 16.0052C6.57087 16.4975 7.43234 15.8976 7.70924 15.2053C7.15543 14.4823 5.10944 15.2515 6.00168 16.0052ZM16.3855 14.9746C15.6778 15.6207 16.5085 16.2975 17.2008 15.8514C17.3854 15.7283 17.1854 15.1284 16.3855 14.9746Z" fill="url(#paint0_linear_109_12)"/>
</g>
<path opacity="0.505263" d="M3.57297 8.63275C1.83327 10.3568 4.8895 9.87091 7.24044 10.7956L12.099 2.25386C11.3624 1.50156 10.422 1.56425 9.74811 2.25386L3.57297 8.63275Z" fill="url(#paint1_linear_109_12)"/>
<path d="M11.949 2.18151L14.4804 4.75954C14.7134 4.9925 14.7134 5.47394 14.5736 5.61371L13.3157 4.58871L13.0672 6.09515L12.0267 5.53606L10.3338 6.60765L9.77475 4.35575L8.874 6.31257L6.6221 6.29704C6.18725 6.29704 6.24937 5.84666 6.69975 5.39629C7.58498 4.41788 9.30885 2.75613 9.85241 2.18151C10.4115 1.60689 11.3899 1.62242 11.949 2.18151Z" fill="url(#paint2_linear_109_12)"/>
<path opacity="0.216749" fill-rule="evenodd" clip-rule="evenodd" d="M8.47471 14.3604C8.47471 14.3604 8.74948 14.7799 8.72147 14.9773C8.66651 15.3646 7.83233 15.5579 8.01716 15.9027C8.19976 16.2433 8.85793 16.0502 9.41037 16.4065C9.96046 16.7612 9.81256 17.4842 10.2124 17.666C10.9921 18.0207 13.0399 17.0542 12.9371 17.0748C12.8343 17.0954 10.9161 17.4939 10.4842 17.1444C9.99184 16.7458 9.85066 16.4674 9.48749 16.2317C9.14715 16.0108 8.66906 15.9207 8.55779 15.7399C8.44651 15.5591 8.78064 15.3258 8.80373 14.9773C8.8176 14.768 8.47471 14.3604 8.47471 14.3604Z" fill="url(#paint3_radial_109_12)"/>
<path opacity="0.275862" fill-rule="evenodd" clip-rule="evenodd" d="M8.47471 14.3604C8.47471 14.3604 8.74948 14.7799 8.72147 14.9773C8.66651 15.3646 7.83233 15.5579 8.01716 15.9027C8.19976 16.2433 8.85793 16.0502 9.41037 16.4065C9.96046 16.7612 9.81256 17.4842 10.2124 17.666C10.9921 18.0207 13.0399 17.0542 12.9371 17.0748C9.53667 17.0878 10.1713 16.2116 8.86028 15.6353C8.67084 15.5521 8.78064 15.3258 8.80373 14.9773C8.8176 14.768 8.47471 14.3604 8.47471 14.3604Z" fill="url(#paint4_radial_109_12)"/>
<path opacity="0.453202" fill-rule="evenodd" clip-rule="evenodd" d="M14.2533 12.5712C17.3054 11.448 18.2858 11.2937 19.2915 10.2886C18.1267 11.2718 15.6642 11.7993 13.657 12.674L14.2533 12.5712Z" fill="url(#paint5_radial_109_12)"/>
<path opacity="0.512315" fill-rule="evenodd" clip-rule="evenodd" d="M14.2533 12.4274C19.2795 10.6462 18.4298 10.6564 19.2915 10.1448C17.6935 10.7565 14.707 10.8217 13.657 12.5302L14.2533 12.4274Z" fill="url(#paint6_radial_109_12)"/>
<path opacity="0.285714" d="M18.6437 13.8514C18.6437 13.9046 18.5749 13.9556 18.4525 13.9932C18.33 14.0308 18.164 14.0519 17.9908 14.0519C17.8176 14.0519 17.6516 14.0308 17.5291 13.9932C17.4067 13.9556 17.3379 13.9046 17.3379 13.8514C17.3379 13.7982 17.4067 13.7472 17.5291 13.7096C17.6516 13.672 17.8176 13.6509 17.9908 13.6509C18.164 13.6509 18.33 13.672 18.4525 13.7096C18.5749 13.7472 18.6437 13.7982 18.6437 13.8514Z" fill="url(#paint7_linear_109_12)"/>
<path opacity="0.620689" d="M18.8698 14.0825C18.8698 14.197 18.7772 14.3069 18.6123 14.3878C18.4474 14.4688 18.2238 14.5143 17.9907 14.5143C17.7575 14.5143 17.5339 14.4688 17.3691 14.3878C17.2042 14.3069 17.1116 14.197 17.1116 14.0825C17.1116 13.9679 17.2042 13.8581 17.3691 13.7771C17.5339 13.6961 17.7575 13.6506 17.9907 13.6506C18.2238 13.6506 18.4474 13.6961 18.6123 13.7771C18.7772 13.8581 18.8698 13.9679 18.8698 14.0825Z" fill="url(#paint8_linear_109_12)"/>
<path fill-rule="evenodd" clip-rule="evenodd" d="M16.793 14.3227C17.103 14.6093 18.8293 14.7564 19.1116 14.2405C18.5574 14.634 17.3252 14.4957 16.793 14.3227Z" fill="url(#paint9_radial_109_12)"/>
<path opacity="0.285714" d="M16.7992 15.2792C16.8142 15.3089 16.8238 15.341 16.8274 15.3737C16.831 15.4065 16.8284 15.4391 16.8199 15.4699C16.8114 15.5006 16.7971 15.5288 16.7778 15.5529C16.7585 15.577 16.7346 15.5965 16.7075 15.6102C16.6803 15.624 16.6505 15.6317 16.6197 15.6331C16.5888 15.6344 16.5576 15.6293 16.5278 15.618C16.498 15.6067 16.4701 15.5894 16.4458 15.5672C16.4215 15.545 16.4013 15.5183 16.3862 15.4886C16.3712 15.4589 16.3616 15.4267 16.358 15.394C16.3544 15.3613 16.357 15.3286 16.3655 15.2979C16.374 15.2672 16.3883 15.2389 16.4076 15.2148C16.4269 15.1908 16.4508 15.1713 16.4779 15.1575C16.5051 15.1438 16.5349 15.136 16.5657 15.1347C16.5966 15.1334 16.6278 15.1385 16.6576 15.1498C16.6874 15.1611 16.7153 15.1783 16.7396 15.2005C16.7639 15.2227 16.7841 15.2495 16.7992 15.2792Z" fill="url(#paint10_linear_109_12)"/>
<path opacity="0.620689" d="M16.9215 15.3346C16.944 15.379 16.9586 15.4269 16.9643 15.4756C16.9699 15.5244 16.9667 15.5729 16.9546 15.6185C16.9426 15.6641 16.922 15.7059 16.894 15.7415C16.8661 15.777 16.8313 15.8057 16.7917 15.8257C16.7521 15.8458 16.7085 15.8569 16.6633 15.8585C16.6181 15.86 16.5722 15.8519 16.5283 15.8347C16.4844 15.8174 16.4433 15.7914 16.4073 15.758C16.3714 15.7246 16.3413 15.6846 16.3188 15.6401C16.2962 15.5957 16.2817 15.5478 16.276 15.4991C16.2703 15.4503 16.2736 15.4018 16.2857 15.3562C16.2977 15.3106 16.3183 15.2688 16.3463 15.2332C16.3742 15.1977 16.409 15.169 16.4486 15.149C16.4882 15.1289 16.5318 15.1178 16.577 15.1162C16.6222 15.1147 16.6681 15.1228 16.712 15.14C16.7559 15.1573 16.797 15.1833 16.833 15.2167C16.8689 15.2501 16.899 15.2901 16.9215 15.3346Z" fill="url(#paint11_linear_109_12)"/>
<path fill-rule="evenodd" clip-rule="evenodd" d="M16.3696 15.8589C16.6188 16.0539 17.5567 16.0789 17.2009 15.5121C17.2936 15.956 16.6531 15.9091 16.3696 15.8589Z" fill="url(#paint12_radial_109_12)"/>
<path fill-rule="evenodd" clip-rule="evenodd" d="M4.7937 12.9208C4.7937 12.8697 7.98905 13.8946 8.53636 14.4425C8.08632 14.0034 5.80877 12.9935 5.46203 12.9825C5.1153 12.9715 4.83483 12.9413 4.7937 12.9208Z" fill="url(#paint13_radial_109_12)"/>
<path opacity="0.285714" d="M7.19423 15.116C7.20666 15.153 7.15812 15.2018 7.05928 15.2516C6.96045 15.3014 6.81941 15.3482 6.6672 15.3816C6.51498 15.415 6.36407 15.4323 6.24764 15.4298C6.13122 15.4273 6.05883 15.4051 6.0464 15.368C6.03396 15.331 6.0825 15.2823 6.18134 15.2325C6.28018 15.1827 6.42122 15.1359 6.57343 15.1025C6.72564 15.0691 6.87656 15.0517 6.99298 15.0543C7.1094 15.0568 7.18179 15.079 7.19423 15.116Z" fill="url(#paint14_linear_109_12)"/>
<path opacity="0.620689" d="M7.44702 15.2334C7.47381 15.3131 7.41807 15.4075 7.29209 15.4956C7.16611 15.5838 6.9802 15.6586 6.77525 15.7036C6.5703 15.7486 6.36311 15.7601 6.19925 15.7356C6.0354 15.711 5.9283 15.6525 5.90152 15.5727C5.87473 15.493 5.93047 15.3987 6.05645 15.3105C6.18243 15.2224 6.36834 15.1476 6.57329 15.1026C6.77824 15.0576 6.98543 15.0461 7.14929 15.0706C7.31314 15.0952 7.42024 15.1537 7.44702 15.2334Z" fill="url(#paint15_linear_109_12)"/>
<path opacity="0.615764" fill-rule="evenodd" clip-rule="evenodd" d="M5.81665 15.6354C5.81665 15.6354 5.98967 16.1002 6.46442 16.1237C6.9447 16.1476 7.49289 15.5474 7.53889 15.332C7.45664 15.5171 6.9968 16.0751 6.40273 16.0672C6.06549 16.0627 5.81665 15.6354 5.81665 15.6354Z" fill="url(#paint16_radial_109_12)"/>
<path d="M10.8476 1.36133C10.3664 1.36133 9.89484 1.53558 9.56145 1.87577L3.16491 8.42762C2.58009 9.01243 2.4396 9.39527 2.47575 9.61181C2.49382 9.72008 2.54697 9.81417 2.66017 9.91271C2.77337 10.0112 2.94461 10.1078 3.15035 10.1942C3.56182 10.3669 4.11602 10.5061 4.6597 10.6553C5.20338 10.8044 5.73592 10.9619 6.13993 11.2182C6.20153 11.2583 6.25937 11.3078 6.30009 11.3784C6.3408 11.449 6.3551 11.5424 6.33891 11.621C6.30654 11.7783 6.2097 11.8613 6.11081 11.9365C5.91304 12.0869 5.64129 12.2119 5.36827 12.3442C5.09525 12.4765 4.82084 12.6118 4.68397 12.7227C4.61553 12.7782 4.59077 12.828 4.59175 12.8246C4.59275 12.8212 4.57361 12.7822 4.60631 12.8149C4.692 12.903 4.95948 13.0538 5.30032 13.1886C5.64116 13.3234 6.0583 13.4597 6.47966 13.5963C6.90101 13.7329 7.32722 13.8681 7.68811 14.0088C8.049 14.1496 8.34313 14.2804 8.53742 14.4747C8.63413 14.5741 8.70245 14.6977 8.71699 14.8242C8.73153 14.9506 8.6973 15.0692 8.64905 15.1687C8.55255 15.3678 8.39741 15.5208 8.25594 15.6686C8.11447 15.8164 7.9863 15.9575 7.94048 16.052C7.91757 16.0993 7.91402 16.1301 7.91621 16.1491C7.9184 16.1681 7.92168 16.1873 7.96474 16.2316C7.96639 16.2332 7.968 16.2348 7.9696 16.2365C8.15497 16.4324 8.55773 16.46 9.01304 16.5665C9.2407 16.6197 9.47878 16.7003 9.68278 16.8771C9.88679 17.0538 10.0399 17.3229 10.105 17.6876C10.1324 17.842 10.2142 17.9172 10.4108 17.9788C10.6074 18.0403 10.9069 18.0511 11.2358 18.003C11.8937 17.907 12.6739 17.5844 13.1237 17.212C13.1517 17.1882 13.1439 17.1945 13.1528 17.1828C13.1226 17.1612 13.0516 17.115 12.9344 17.0567C12.796 16.9877 12.6324 16.9232 12.5074 16.7655C12.4448 16.6866 12.4018 16.5621 12.42 16.4403C12.4382 16.3185 12.5049 16.2171 12.5947 16.1248C13.3317 15.3796 14.058 15.2017 14.604 15.0571C14.8769 14.9848 15.1055 14.9187 15.2786 14.8096C15.4516 14.7005 15.5868 14.5512 15.7008 14.2612C15.7133 14.2298 15.713 14.2207 15.6959 14.1835C15.6789 14.1464 15.6331 14.087 15.56 14.0234C15.4139 13.8962 15.1702 13.7595 14.9291 13.6254C14.6881 13.4913 14.4538 13.3663 14.2836 13.208C14.1986 13.1289 14.1094 13.0292 14.0992 12.878C14.089 12.7269 14.1881 12.5905 14.3031 12.5092C14.7295 12.2089 15.3741 11.9804 16.0745 11.7375C16.7749 11.4946 17.5283 11.2433 18.142 10.9561C18.7556 10.669 19.2069 10.3383 19.3504 10.0049C19.4222 9.83825 19.4353 9.66968 19.3601 9.45165C19.2849 9.23362 19.1132 8.96698 18.8068 8.66058L12.1822 1.88062C12.1805 1.87905 12.179 1.87733 12.1773 1.87577C11.8112 1.5329 11.3265 1.36133 10.8476 1.36133ZM17.9818 13.7856C17.5725 13.8004 17.196 13.9877 17.0354 14.2806C17.081 14.2978 17.1221 14.3171 17.1956 14.334C17.4092 14.3831 17.7074 14.4149 18.0012 14.4214C18.2951 14.4278 18.5889 14.4031 18.768 14.3534C18.8464 14.3316 18.888 14.3096 18.9088 14.2952C18.869 14.1257 18.7744 14.006 18.6127 13.9166C18.4452 13.8241 18.2157 13.7771 17.9818 13.7856ZM7.03292 15.193C6.70836 15.1704 6.30043 15.2996 6.10111 15.4599C6.00144 15.5401 5.95927 15.6144 5.95551 15.6638C5.95175 15.7132 5.96751 15.779 6.10111 15.8919C6.10112 15.8935 6.10112 15.8951 6.10111 15.8967C6.3112 16.0784 6.54873 16.0595 6.81938 15.9113C7.04627 15.787 7.24759 15.554 7.38236 15.3095C7.2915 15.2509 7.18287 15.2034 7.03292 15.193ZM16.5064 15.2901C16.4369 15.3784 16.3991 15.4606 16.3948 15.5182C16.3888 15.5977 16.4113 15.6591 16.4724 15.7172C16.5869 15.826 16.8357 15.8729 17.0888 15.7366C17.0838 15.7072 17.0743 15.6627 17.0354 15.6055C16.9578 15.4915 16.7763 15.3687 16.5064 15.2901Z" stroke="url(#paint17_radial_109_12)" stroke-width="0.0983861"/>
<path opacity="0.325123" fill-rule="evenodd" clip-rule="evenodd" d="M7.34 11.6213C6.95396 11.7352 5.70258 12.2081 5.88019 12.5693C6.05033 12.9153 8.95993 13.0547 9.40649 14.086C9.60123 14.5357 8.95965 14.8749 9.12212 15.3372C9.24722 15.6933 10.215 16.5878 10.8273 17.0107C11.3076 17.3425 11.9384 16.7436 11.6815 16.2472C11.2723 15.4565 13.0801 14.4879 13.8997 14.048C14.3778 13.7914 12.9138 12.5314 12.9138 12.5314L7.34 11.6213Z" fill="url(#paint18_linear_109_12)"/>
<path fill-rule="evenodd" clip-rule="evenodd" d="M7.48282 11.9707C7.82945 12.2253 8.51353 12.0717 8.92436 12.2567C9.91046 12.7008 11.1227 13.1956 10.8996 12.3196L10.6487 12.528L10.6438 12.1308L10.0611 12.2731C10.0611 12.2731 9.60974 11.9108 9.40282 11.7913C9.3596 11.7664 9.13761 11.9921 9.13761 11.9921L9.0977 11.7524C8.80924 11.7217 8.52367 11.7081 8.27224 11.7102C7.66952 11.715 7.26291 11.8092 7.48282 11.9707Z" fill="url(#paint19_linear_109_12)"/>
<path opacity="0.477832" fill-rule="evenodd" clip-rule="evenodd" d="M13.9567 12.7778C13.8232 13.2691 15.5968 13.9366 15.4639 14.2756C15.1712 15.0219 13.5698 14.5135 12.3452 16.0766C12.1697 16.3005 12.5916 17.1004 12.5348 17.0056C12.4779 16.9108 12.0445 16.2501 12.1556 15.925C12.504 14.9054 15.8724 14.5252 15.2553 14.0386C14.9004 13.7587 13.6245 12.9855 13.9567 12.7778Z" fill="url(#paint20_radial_109_12)"/>
<path opacity="0.586207" d="M17.9475 13.7874C17.9475 13.8087 17.927 13.8292 17.8906 13.8443C17.8541 13.8594 17.8047 13.8679 17.7532 13.8679C17.7016 13.8679 17.6522 13.8594 17.6158 13.8443C17.5793 13.8292 17.5588 13.8087 17.5588 13.7874C17.5588 13.766 17.5793 13.7455 17.6158 13.7304C17.6522 13.7153 17.7016 13.7068 17.7532 13.7068C17.8047 13.7068 17.8541 13.7153 17.8906 13.7304C17.927 13.7455 17.9475 13.766 17.9475 13.7874Z" fill="white"/>
<path opacity="0.586207" d="M16.6491 15.2756C16.6491 15.297 16.6361 15.3175 16.613 15.3326C16.5899 15.3477 16.5585 15.3562 16.5258 15.3562C16.4931 15.3562 16.4618 15.3477 16.4387 15.3326C16.4156 15.3175 16.4026 15.297 16.4026 15.2756C16.4026 15.2543 16.4156 15.2338 16.4387 15.2187C16.4618 15.2036 16.4931 15.1951 16.5258 15.1951C16.5585 15.1951 16.5899 15.2036 16.613 15.2187C16.6361 15.2338 16.6491 15.2543 16.6491 15.2756Z" fill="white"/>
<path opacity="0.586207" d="M6.81911 15.2046C6.81911 15.226 6.79614 15.2465 6.75526 15.2616C6.71437 15.2767 6.65891 15.2852 6.60109 15.2852C6.54326 15.2852 6.4878 15.2767 6.44692 15.2616C6.40603 15.2465 6.38306 15.226 6.38306 15.2046C6.38306 15.1832 6.40603 15.1627 6.44692 15.1476C6.4878 15.1325 6.54326 15.124 6.60109 15.124C6.65891 15.124 6.71437 15.1325 6.75526 15.1476C6.79614 15.1627 6.81911 15.1832 6.81911 15.2046Z" fill="white"/>
<path opacity="0.251232" d="M6.69547 11.6594C5.58459 12.3465 3.85746 12.5966 5.74753 13.0529C5.52238 12.5516 6.23496 12.6069 6.69547 11.6594Z" fill="url(#paint21_linear_109_12)"/>
<path opacity="0.363158" d="M10.639 17.9158C10.639 17.9158 12.3522 17.7544 12.7486 17.2601C12.9804 16.9709 11.8271 16.6334 12.076 16.3501C13.0126 15.2843 13.7998 15.3288 14.8857 14.8824C15.9716 14.436 15.5709 14.2174 15.2197 14.0214C14.6181 13.6857 13.2793 13.3281 13.7222 12.5315C14.1679 11.73 18.0708 10.6167 18.0708 10.6167C19.2535 10.2126 19.1051 9.48188 18.5258 8.87251L15.0374 5.40308C15.0374 5.40308 15.2105 8.69343 14.5066 10.1048C13.6366 11.8489 9.00521 13.7951 10.9423 14.0103C11.6248 14.0861 11.9525 14.319 12.2315 14.8445C12.8061 15.9265 10.639 17.9158 10.639 17.9158Z" fill="url(#paint22_linear_109_12)"/>
</g>
<defs>
<filter id="filter0_f_109_12" x="1.91566" y="0.960091" width="18.0473" height="17.7764" filterUnits="userSpaceOnUse" color-interpolation-filters="sRGB">
<feFlood flood-opacity="0" result="BackgroundImageFix"/>
<feBlend mode="normal" in="SourceGraphic" in2="BackgroundImageFix" result="shape"/>
<feGaussianBlur stdDeviation="0.162289" result="effect1_foregroundBlur_109_12"/>
</filter>
<filter id="filter1_f_109_12" x="0.833734" y="0.0300227" width="20.2112" height="19.9402" filterUnits="userSpaceOnUse" color-interpolation-filters="sRGB">
<feFlood flood-opacity="0" result="BackgroundImageFix"/>
<feBlend mode="normal" in="SourceGraphic" in2="BackgroundImageFix" result="shape"/>
<feGaussianBlur stdDeviation="0.70325" result="effect1_foregroundBlur_109_12"/>
</filter>
<linearGradient id="paint0_linear_109_12" x1="13.727" y1="2.94474" x2="10.3244" y2="6.02142" gradientUnits="userSpaceOnUse">
<stop stop-color="#C0CDF9"/>
<stop offset="1" stop-color="#07092D" stop-opacity="0.288043"/>
</linearGradient>
<linearGradient id="paint1_linear_109_12" x1="6.11196" y1="5.20035" x2="10.0302" y2="9.11857" gradientUnits="userSpaceOnUse">
<stop stop-color="white"/>
<stop offset="1" stop-color="white" stop-opacity="0"/>
</linearGradient>
<linearGradient id="paint2_linear_109_12" x1="10.3183" y1="2.88037" x2="14.9774" y2="7.53947" gradientUnits="userSpaceOnUse">
<stop stop-color="white"/>
<stop offset="1" stop-color="white" stop-opacity="0"/>
</linearGradient>
<radialGradient id="paint3_radial_109_12" cx="0" cy="0" r="1" gradientUnits="userSpaceOnUse" gradientTransform="translate(7.99046 17.4926) scale(3.95183 2.6452)">
<stop stop-color="white"/>
<stop offset="1" stop-color="white" stop-opacity="0"/>
</radialGradient>
<radialGradient id="paint4_radial_109_12" cx="0" cy="0" r="1" gradientUnits="userSpaceOnUse" gradientTransform="translate(10.0741 17.5875) scale(5.0422 3.37506)">
<stop stop-color="white"/>
<stop offset="1" stop-color="white" stop-opacity="0"/>
</radialGradient>
<radialGradient id="paint5_radial_109_12" cx="0" cy="0" r="1" gradientUnits="userSpaceOnUse" gradientTransform="translate(16.4743 11.4813) scale(2.81728 1.19272)">
<stop stop-color="white"/>
<stop offset="1" stop-color="white" stop-opacity="0"/>
</radialGradient>
<radialGradient id="paint6_radial_109_12" cx="0" cy="0" r="1" gradientUnits="userSpaceOnUse" gradientTransform="translate(17.0706 11.8105) scale(2.81728 1.19272)">
<stop stop-color="white"/>
<stop offset="1" stop-color="white" stop-opacity="0"/>
</radialGradient>
<linearGradient id="paint7_linear_109_12" x1="18.1296" y1="13.5326" x2="18.1399" y2="14.0519" gradientUnits="userSpaceOnUse">
<stop stop-color="white"/>
<stop offset="1" stop-color="white" stop-opacity="0"/>
</linearGradient>
<linearGradient id="paint8_linear_109_12" x1="18.1501" y1="13.4728" x2="18.1501" y2="14.2612" gradientUnits="userSpaceOnUse">
<stop stop-color="white"/>
<stop offset="1" stop-color="white" stop-opacity="0"/>
</linearGradient>
<radialGradient id="paint9_radial_109_12" cx="0" cy="0" r="1" gradientUnits="userSpaceOnUse" gradientTransform="translate(17.9523 14.4118) scale(1.1593 0.171287)">
<stop stop-color="white"/>
<stop offset="1" stop-color="white" stop-opacity="0"/>
</radialGradient>
<linearGradient id="paint10_linear_109_12" x1="16.5021" y1="15.0724" x2="16.7577" y2="15.524" gradientUnits="userSpaceOnUse">
<stop stop-color="white"/>
<stop offset="1" stop-color="white" stop-opacity="0"/>
</linearGradient>
<linearGradient id="paint11_linear_109_12" x1="16.4059" y1="14.9124" x2="16.7624" y2="15.6156" gradientUnits="userSpaceOnUse">
<stop stop-color="white"/>
<stop offset="1" stop-color="white" stop-opacity="0"/>
</linearGradient>
<radialGradient id="paint12_radial_109_12" cx="0" cy="0" r="1" gradientUnits="userSpaceOnUse" gradientTransform="translate(16.8313 15.8916) rotate(-26.8862) scale(0.501244 0.171287)">
<stop stop-color="white"/>
<stop offset="1" stop-color="white" stop-opacity="0"/>
</radialGradient>
<radialGradient id="paint13_radial_109_12" cx="0" cy="0" r="1" gradientUnits="userSpaceOnUse" gradientTransform="translate(6.57249 13.4339) scale(1.87133 0.761781)">
<stop stop-color="white" stop-opacity="0.330049"/>
<stop offset="1" stop-color="white" stop-opacity="0"/>
</radialGradient>
<linearGradient id="paint14_linear_109_12" x1="6.66779" y1="14.9934" x2="6.75519" y2="15.363" gradientUnits="userSpaceOnUse">
<stop stop-color="white"/>
<stop offset="1" stop-color="white" stop-opacity="0"/>
</linearGradient>
<linearGradient id="paint15_linear_109_12" x1="6.6718" y1="14.9481" x2="6.7952" y2="15.5101" gradientUnits="userSpaceOnUse">
<stop stop-color="white"/>
<stop offset="1" stop-color="white" stop-opacity="0"/>
</linearGradient>
<radialGradient id="paint16_radial_109_12" cx="0" cy="0" r="1" gradientUnits="userSpaceOnUse" gradientTransform="translate(6.62127 16.0933) rotate(-15.487) scale(1.05894 0.396207)">
<stop stop-color="white"/>
<stop offset="1" stop-color="white" stop-opacity="0"/>
</radialGradient>
<radialGradient id="paint17_radial_109_12" cx="0" cy="0" r="1" gradientUnits="userSpaceOnUse" gradientTransform="translate(11.6231 3.17533) scale(14.6521 14.4209)">
<stop stop-color="white"/>
<stop offset="1" stop-color="white" stop-opacity="0"/>
</radialGradient>
<linearGradient id="paint18_linear_109_12" x1="7.34" y1="14.3639" x2="11.7384" y2="15.5268" gradientUnits="userSpaceOnUse">
<stop stop-color="white"/>
<stop offset="1" stop-color="white" stop-opacity="0"/>
</linearGradient>
<linearGradient id="paint19_linear_109_12" x1="9.6717" y1="11.6903" x2="9.17764" y2="12.8223" gradientUnits="userSpaceOnUse">
<stop stop-color="#EEEEEC"/>
<stop offset="1" stop-color="#EEEEEC" stop-opacity="0"/>
</linearGradient>
<radialGradient id="paint20_radial_109_12" cx="0" cy="0" r="1" gradientUnits="userSpaceOnUse" gradientTransform="translate(13.8411 14.8482) scale(2.30262 2.92627)">
<stop stop-color="white"/>
<stop offset="1" stop-color="white" stop-opacity="0"/>
</radialGradient>
<linearGradient id="paint21_linear_109_12" x1="5.70971" y1="12.0768" x2="6.40172" y2="12.6266" gradientUnits="userSpaceOnUse">
<stop stop-color="white"/>
<stop offset="1" stop-color="white" stop-opacity="0"/>
</linearGradient>
<linearGradient id="paint22_linear_109_12" x1="13.8099" y1="15.072" x2="11.7538" y2="9.53606" gradientUnits="userSpaceOnUse">
<stop stop-color="#729FCF"/>
<stop offset="1" stop-color="#729FCF" stop-opacity="0"/>
</linearGradient>
<clipPath id="clip0_109_12">
<rect width="20" height="20" fill="white" transform="translate(0.939209)"/>
</clipPath>
</defs>
</svg>
