<svg width="18" height="21" viewBox="0 0 18 21" fill="none" xmlns="http://www.w3.org/2000/svg">
<g clip-path="url(#clip0_109_79)">
<path d="M1.46233 18.7439L0 0.872314L17.464 0.908228L15.9177 18.7439L8.79791 20.8055L1.46233 18.7439Z" fill="#E9CA32"/>
<path d="M8.7981 19.0791V2.57397L15.9899 2.59792L14.7074 17.365L8.7981 19.0791Z" fill="#FFDE25"/>
<path d="M8.02782 4.53394H6.1265V15.5194L4.64769 15.2377V13.7589L2.88721 13.4772V16.7869L8.02782 18.1249V4.53394ZM9.45409 4.53394H14.7177L14.3656 6.63947H11.4634V10.0947H14.3656L14.0135 17.0686L9.45409 18.1249V15.9419L12.5347 14.8856L12.7125 11.9984L9.45409 12.4702V4.53394Z" fill="white"/>
</g>
<defs>
<clipPath id="clip0_109_79">
<rect width="17.464" height="20" fill="white" transform="translate(0 0.838867)"/>
</clipPath>
</defs>
</svg>
