<svg width="25" height="15" viewBox="0 0 25 15" fill="none" xmlns="http://www.w3.org/2000/svg">
<mask id="mask0_109_95" style="mask-type:luminance" maskUnits="userSpaceOnUse" x="0" y="0" width="25" height="15">
<path d="M0.873779 0.112793H25V14.5885H0.873779V0.112793Z" fill="white"/>
</mask>
<g mask="url(#mask0_109_95)">
<path fill-rule="evenodd" clip-rule="evenodd" d="M12.9369 0.112793C9.72006 0.112793 7.70954 1.72121 6.90533 4.93804C8.11165 3.32962 9.51901 2.72647 11.1274 3.12857C12.0451 3.35777 12.701 4.02392 13.427 4.76066C14.6096 5.96117 15.9786 7.35066 18.9684 7.35066C22.1853 7.35066 24.1958 5.74224 25 2.52541C23.7937 4.13383 22.3863 4.73698 20.7779 4.33488C19.8602 4.10568 19.2043 3.43953 18.4783 2.70279C17.2957 1.50228 15.9268 0.112793 12.9369 0.112793ZM6.90533 7.35066C3.68851 7.35066 1.67799 8.95907 0.873779 12.1759C2.08009 10.5675 3.48745 9.96433 5.09587 10.3664C6.01356 10.5961 6.66943 11.2618 7.39545 11.9985C8.57809 13.199 9.94703 14.5885 12.9369 14.5885C16.1537 14.5885 18.1642 12.9801 18.9684 9.76328C17.7621 11.3717 16.3548 11.9749 14.7464 11.5727C13.8287 11.3435 13.1728 10.6774 12.4468 9.94065C11.2641 8.74015 9.8952 7.35066 6.90533 7.35066Z" fill="#38BDF8"/>
</g>
</svg>
